# MagicaVoxel @ Ephtracy

# group
o 

# material
mtllib Street2-0.mtl
usemtl palette

# normals
vn -1 0 0
vn 1 0 0
vn 0 0 1
vn 0 0 -1
vn 0 -1 0
vn 0 1 0

# texcoords
vt 0.0605469 0.5
vt 0.123047 0.5
vt 0.279297 0.5
vt 0.779297 0.5
vt 0.939453 0.5
vt 0.951172 0.5
vt 0.955078 0.5

# verts
v -12.8 -0.1 12.8
v -12.8 -0.1 12.3
v -12.8 -0.1 10.1
v -12.8 -0.1 -10
v -12.8 -0.1 -12.7
v -12.8 -0.1 -12.8
v -12.8 0 12.8
v -12.8 0 12.3
v -12.8 0 10.1
v -12.8 0 9.9
v -12.8 0 7.4
v -12.8 0 0.900001
v -12.8 0 -10
v -12.8 0 -12.7
v -12.8 0 -12.8
v -12.8 0.1 10.1
v -12.8 0.1 9.9
v -12.8 0.1 7.4
v -12.8 0.1 0.900001
v -12.8 0.1 -12.8
v -10.4 0 7.4
v -10.4 0 7.3
v -10.4 0.1 7.4
v -10.4 0.1 7.3
v -10.2 0 7.3
v -10.2 0 7.2
v -10.2 0.1 7.3
v -10.2 0.1 7.2
v -10.1 0 7.2
v -10.1 0 7
v -10.1 0.1 7.2
v -10.1 0.1 7
v -10 0 7
v -10 0 0.900001
v -10 0.1 7
v -10 0.1 0.900001
v -2.8 0 9.9
v -2.8 0 -12.8
v -2.8 0.1 9.9
v -2.8 0.1 -12.8
v -2.7 0 10
v -2.7 0 9.9
v -2.7 0.1 10
v -2.7 0.1 9.9
v -2.6 0 10.1
v -2.6 0 10
v -2.6 0.1 10.1
v -2.6 0.1 10
v 7.7 -0.1 -7.8
v 7.7 -0.1 -7.9
v 7.7 0 -7.8
v 7.7 0 -7.9
v -7.5 0 10.1
v -7.5 0 10
v -7.5 0.1 10.1
v -7.5 0.1 10
v -7.4 0 10
v -7.4 0 9.9
v -7.4 0.1 10
v -7.4 0.1 9.9
v -7.3 0 9.9
v -7.3 0 -12.8
v -7.3 0.1 9.9
v -7.3 0.1 -12.8
v 7 -0.1 -7.8
v 7 -0.1 -7.9
v 7 0 -7.8
v 7 0 -7.9
v 12.8 -0.1 12.8
v 12.8 -0.1 12.3
v 12.8 -0.1 10.1
v 12.8 -0.1 -10
v 12.8 -0.1 -12.7
v 12.8 -0.1 -12.8
v 12.8 0 12.8
v 12.8 0 12.3
v 12.8 0 10.1
v 12.8 0 9.9
v 12.8 0 -10
v 12.8 0 -12.7
v 12.8 0 -12.8
v 12.8 0.1 10.1
v 12.8 0.1 9.9
v 12.8 0.1 -12.8
v -12.8 -0.1 12.8
v -12.8 0 12.8
v -10 -0.1 12.8
v -10 0 12.8
v -9.6 -0.1 12.8
v -9.6 0 12.8
v -7.5 -0.1 12.8
v -7.5 0 12.8
v -2.7 -0.1 12.8
v -2.7 0 12.8
v -0.6 -0.1 12.8
v -0.6 0 12.8
v -0.200001 -0.1 12.8
v -0.200001 0 12.8
v 12.8 -0.1 12.8
v 12.8 0 12.8
v -12.8 0 10.1
v -12.8 0.1 10.1
v -7.5 0 10.1
v -7.5 0.1 10.1
v -2.6 0 10.1
v -2.6 0.1 10.1
v 12.8 0 10.1
v 12.8 0.1 10.1
v -7.5 0 10
v -7.5 0.1 10
v -7.4 0 10
v -7.4 0.1 10
v -2.7 0 10
v -2.7 0.1 10
v -2.6 0 10
v -2.6 0.1 10
v -7.4 0 9.9
v -7.4 0.1 9.9
v -7.3 0 9.9
v -7.3 0.1 9.9
v -2.8 0 9.9
v -2.8 0.1 9.9
v -2.7 0 9.9
v -2.7 0.1 9.9
v -12.8 0 0.900001
v -12.8 0.1 0.900001
v -10 0 0.900001
v -10 0.1 0.900001
v 7 -0.1 -7.9
v 7 0 -7.9
v 7.7 -0.1 -7.9
v 7.7 0 -7.9
v -12.8 0 7.4
v -12.8 0.1 7.4
v -10.4 0 7.4
v -10.4 0.1 7.4
v -10.4 0 7.3
v -10.4 0.1 7.3
v -10.2 0 7.3
v -10.2 0.1 7.3
v -10.2 0 7.2
v -10.2 0.1 7.2
v -10.1 0 7.2
v -10.1 0.1 7.2
v -10.1 0 7
v -10.1 0.1 7
v -10 0 7
v -10 0.1 7
v 7 -0.1 -7.8
v 7 0 -7.8
v 7.7 -0.1 -7.8
v 7.7 0 -7.8
v -12.8 -0.1 -12.8
v -12.8 0 -12.8
v -12.8 0.1 -12.8
v -10 -0.1 -12.8
v -10 0 -12.8
v -9.6 -0.1 -12.8
v -9.6 0 -12.8
v -7.5 -0.1 -12.8
v -7.5 0 -12.8
v -7.5 0.1 -12.8
v -7.3 0 -12.8
v -7.3 0.1 -12.8
v -5.2 -0.1 -12.8
v -5.2 0 -12.8
v -4.7 -0.1 -12.8
v -4.7 0 -12.8
v -2.8 0 -12.8
v -2.8 0.1 -12.8
v -2.7 -0.1 -12.8
v -2.7 0 -12.8
v -2.6 0 -12.8
v -2.6 0.1 -12.8
v -0.6 -0.1 -12.8
v -0.6 0 -12.8
v -0.200001 -0.1 -12.8
v -0.200001 0 -12.8
v 12.8 -0.1 -12.8
v 12.8 0 -12.8
v 12.8 0.1 -12.8
v -12.8 -0.1 12.8
v -10 -0.1 12.8
v -9.6 -0.1 12.8
v -7.5 -0.1 12.8
v -2.7 -0.1 12.8
v -0.6 -0.1 12.8
v -0.200001 -0.1 12.8
v 12.8 -0.1 12.8
v -9.6 -0.1 12.6
v -7.5 -0.1 12.6
v -2.7 -0.1 12.6
v -0.6 -0.1 12.6
v -12.8 -0.1 12.3
v -10 -0.1 12.3
v 0.4 -0.1 12.3
v 12.8 -0.1 12.3
v -9.6 -0.1 12.1
v -7.5 -0.1 12.1
v -2.7 -0.1 12.1
v -0.6 -0.1 12.1
v -9.6 -0.1 11.5
v -7.5 -0.1 11.5
v -2.7 -0.1 11.5
v -0.6 -0.1 11.5
v -9.6 -0.1 11
v -7.5 -0.1 11
v -2.7 -0.1 11
v -0.6 -0.1 11
v -9.6 -0.1 10.4
v -7.5 -0.1 10.4
v -2.7 -0.1 10.4
v -0.6 -0.1 10.4
v -0.200001 -0.1 10.4
v 0.4 -0.1 10.4
v -12.8 -0.1 10.1
v -7.5 -0.1 10.1
v -2.6 -0.1 10.1
v 12.8 -0.1 10.1
v -7.5 -0.1 10
v -7.4 -0.1 10
v -2.7 -0.1 10
v -2.6 -0.1 10
v -7.4 -0.1 9.9
v -7.3 -0.1 9.9
v -2.8 -0.1 9.9
v -2.7 -0.1 9.9
v -6.9 -0.1 9.8
v -6.3 -0.1 9.8
v -5.8 -0.1 9.8
v -5.2 -0.1 9.8
v -4.7 -0.1 9.8
v -4.1 -0.1 9.8
v -3.7 -0.1 9.8
v -3.1 -0.1 9.8
v -6.9 -0.1 7.7
v -6.3 -0.1 7.7
v -5.8 -0.1 7.7
v -5.2 -0.1 7.7
v -4.7 -0.1 7.7
v -4.1 -0.1 7.7
v -3.7 -0.1 7.7
v -3.1 -0.1 7.7
v -5.2 -0.1 7.2
v -4.7 -0.1 7.2
v -5.2 -0.1 6.5
v -4.7 -0.1 6.5
v -5.2 -0.1 5.9
v -4.7 -0.1 5.9
v -5.2 -0.1 -6.3
v -4.7 -0.1 -6.3
v -5.2 -0.1 -7.2
v -4.7 -0.1 -7.2
v 7 -0.1 -7.8
v 7.7 -0.1 -7.8
v 7 -0.1 -7.9
v 7.7 -0.1 -7.9
v -7.5 -0.1 -9.2
v -7.3 -0.1 -9.2
v -2.8 -0.1 -9.2
v -2.6 -0.1 -9.2
v -7.5 -0.1 -9.8
v -7.4 -0.1 -9.8
v -7.3 -0.1 -9.8
v -2.8 -0.1 -9.8
v -2.7 -0.1 -9.8
v -2.6 -0.1 -9.8
v -7.5 -0.1 -9.9
v -7.4 -0.1 -9.9
v -2.7 -0.1 -9.9
v -2.6 -0.1 -9.9
v -12.8 -0.1 -10
v -7.5 -0.1 -10
v -2.6 -0.1 -10
v 12.8 -0.1 -10
v -9.6 -0.1 -10.3
v -7.5 -0.1 -10.3
v -2.7 -0.1 -10.3
v -0.6 -0.1 -10.3
v -10.6 -0.1 -10.4
v -10 -0.1 -10.4
v -9.6 -0.1 -10.9
v -7.5 -0.1 -10.9
v -2.7 -0.1 -10.9
v -0.6 -0.1 -10.9
v -9.6 -0.1 -11.3
v -7.5 -0.1 -11.3
v -2.7 -0.1 -11.3
v -0.6 -0.1 -11.3
v -9.6 -0.1 -11.9
v -7.5 -0.1 -11.9
v -2.7 -0.1 -11.9
v -0.6 -0.1 -11.9
v -9.6 -0.1 -12.4
v -7.5 -0.1 -12.4
v -2.7 -0.1 -12.4
v -0.6 -0.1 -12.4
v -12.8 -0.1 -12.7
v -10.6 -0.1 -12.7
v -0.200001 -0.1 -12.7
v 12.8 -0.1 -12.7
v -12.8 -0.1 -12.8
v -10 -0.1 -12.8
v -9.6 -0.1 -12.8
v -7.5 -0.1 -12.8
v -5.2 -0.1 -12.8
v -4.7 -0.1 -12.8
v -2.7 -0.1 -12.8
v -0.6 -0.1 -12.8
v -0.200001 -0.1 -12.8
v 12.8 -0.1 -12.8
v 7 0 -7.8
v 7.7 0 -7.8
v 7 0 -7.9
v 7.7 0 -7.9
v -12.8 0 12.8
v -10 0 12.8
v -9.6 0 12.8
v -7.5 0 12.8
v -2.7 0 12.8
v -0.6 0 12.8
v -0.200001 0 12.8
v 12.8 0 12.8
v -9.6 0 12.6
v -7.5 0 12.6
v -2.7 0 12.6
v -0.6 0 12.6
v -12.8 0 12.3
v -10 0 12.3
v 0.4 0 12.3
v 12.8 0 12.3
v -9.6 0 12.1
v -7.5 0 12.1
v -2.7 0 12.1
v -0.6 0 12.1
v -9.6 0 11.5
v -7.5 0 11.5
v -2.7 0 11.5
v -0.6 0 11.5
v -9.6 0 11
v -7.5 0 11
v -2.7 0 11
v -0.6 0 11
v -9.6 0 10.4
v -7.5 0 10.4
v -2.7 0 10.4
v -0.6 0 10.4
v -0.200001 0 10.4
v 0.4 0 10.4
v -12.8 0 10.1
v -7.5 0 10.1
v -2.6 0 10.1
v 12.8 0 10.1
v -7.5 0 10
v -7.4 0 10
v -2.7 0 10
v -2.6 0 10
v -7.4 0 9.9
v -7.3 0 9.9
v -2.8 0 9.9
v -2.7 0 9.9
v -6.9 0 9.8
v -6.3 0 9.8
v -5.8 0 9.8
v -5.2 0 9.8
v -4.7 0 9.8
v -4.1 0 9.8
v -3.7 0 9.8
v -3.1 0 9.8
v -6.9 0 7.7
v -6.3 0 7.7
v -5.8 0 7.7
v -5.2 0 7.7
v -4.7 0 7.7
v -4.1 0 7.7
v -3.7 0 7.7
v -3.1 0 7.7
v -12.8 0 7.4
v -10.4 0 7.4
v -10.4 0 7.3
v -10.2 0 7.3
v -10.2 0 7.2
v -10.1 0 7.2
v -5.2 0 7.2
v -4.7 0 7.2
v -10.1 0 7
v -10 0 7
v -5.2 0 6.5
v -4.7 0 6.5
v -5.2 0 5.9
v -4.7 0 5.9
v -12.8 0 0.900001
v -10 0 0.900001
v -5.2 0 -6.3
v -4.7 0 -6.3
v -5.2 0 -7.2
v -4.7 0 -7.2
v -7.3 0 -12.8
v -5.2 0 -12.8
v -4.7 0 -12.8
v -2.8 0 -12.8
v -12.8 0.1 10.1
v -7.5 0.1 10.1
v -2.6 0.1 10.1
v 12.8 0.1 10.1
v -7.5 0.1 10
v -7.4 0.1 10
v -2.7 0.1 10
v -2.6 0.1 10
v -12.8 0.1 9.9
v -7.6 0.1 9.9
v -7.4 0.1 9.9
v -7.3 0.1 9.9
v -2.8 0.1 9.9
v -2.7 0.1 9.9
v -2.5 0.1 9.9
v 12.8 0.1 9.9
v -7.6 0.1 9.8
v -7.5 0.1 9.8
v -2.6 0.1 9.8
v -2.5 0.1 9.8
v -0.1 0.1 9.5
v 0.4 0.1 9.5
v -0.200001 0.1 9.4
v -0.1 0.1 9.4
v 0.4 0.1 9.4
v 0.5 0.1 9.4
v -0.3 0.1 9.3
v -0.200001 0.1 9.3
v -0.1 0.1 9.3
v 0 0.1 9.3
v 0.0999994 0.1 9.3
v 0.2 0.1 9.3
v 0.299999 0.1 9.3
v 0.4 0.1 9.3
v 0.5 0.1 9.3
v 0.599999 0.1 9.3
v -0.1 0.1 9.2
v 0 0.1 9.2
v 0.0999994 0.1 9.2
v 0.2 0.1 9.2
v 0.299999 0.1 9.2
v 0.4 0.1 9.2
v -0.1 0.1 9.1
v 0 0.1 9.1
v 0.0999994 0.1 9.1
v 0.2 0.1 9.1
v 0.299999 0.1 9.1
v 0.4 0.1 9.1
v -0.1 0.1 9
v 0 0.1 9
v 0.0999994 0.1 9
v 0.2 0.1 9
v 0.299999 0.1 9
v 0.4 0.1 9
v -0.1 0.1 8.9
v 0 0.1 8.9
v 0.0999994 0.1 8.9
v 0.2 0.1 8.9
v 0.299999 0.1 8.9
v 0.4 0.1 8.9
v -0.3 0.1 8.8
v -0.200001 0.1 8.8
v -0.1 0.1 8.8
v 0 0.1 8.8
v 0.0999994 0.1 8.8
v 0.2 0.1 8.8
v 0.299999 0.1 8.8
v 0.4 0.1 8.8
v 0.5 0.1 8.8
v 0.599999 0.1 8.8
v -0.200001 0.1 8.7
v -0.1 0.1 8.7
v 0.4 0.1 8.7
v 0.5 0.1 8.7
v -0.1 0.1 8.6
v 0.4 0.1 8.6
v -12.8 0.1 7.4
v -10.4 0.1 7.4
v -10.4 0.1 7.3
v -10.2 0.1 7.3
v -10.2 0.1 7.2
v -10.1 0.1 7.2
v -10.1 0.1 7
v -10 0.1 7
v -12.8 0.1 0.900001
v -10 0.1 0.900001
v -12.8 0.1 -12.8
v -7.5 0.1 -12.8
v -7.3 0.1 -12.8
v -2.8 0.1 -12.8
v -2.6 0.1 -12.8
v 12.8 0.1 -12.8

# faces
f 7/4/1 2/4/1 1/4/1
f 8/6/1 3/6/1 2/6/1
f 8/4/1 2/4/1 7/4/1
f 9/7/1 4/7/1 3/7/1
f 9/6/1 3/6/1 8/6/1
f 10/7/1 4/7/1 9/7/1
f 11/7/1 4/7/1 10/7/1
f 12/7/1 4/7/1 11/7/1
f 13/6/1 5/6/1 4/6/1
f 13/7/1 4/7/1 12/7/1
f 14/4/1 6/4/1 5/4/1
f 14/6/1 5/6/1 13/6/1
f 15/4/1 6/4/1 14/4/1
f 16/5/1 10/5/1 9/5/1
f 17/7/1 11/7/1 10/7/1
f 17/5/1 10/5/1 16/5/1
f 18/7/1 11/7/1 17/7/1
f 19/7/1 13/7/1 12/7/1
f 19/7/1 15/7/1 14/7/1
f 19/7/1 14/7/1 13/7/1
f 20/7/1 15/7/1 19/7/1
f 23/7/1 22/7/1 21/7/1
f 24/7/1 22/7/1 23/7/1
f 27/7/1 26/7/1 25/7/1
f 28/7/1 26/7/1 27/7/1
f 31/7/1 30/7/1 29/7/1
f 32/7/1 30/7/1 31/7/1
f 35/7/1 34/7/1 33/7/1
f 36/7/1 34/7/1 35/7/1
f 39/5/1 38/5/1 37/5/1
f 40/5/1 38/5/1 39/5/1
f 43/5/1 42/5/1 41/5/1
f 44/5/1 42/5/1 43/5/1
f 47/5/1 46/5/1 45/5/1
f 48/5/1 46/5/1 47/5/1
f 51/7/1 50/7/1 49/7/1
f 52/7/1 50/7/1 51/7/1
f 53/5/2 54/5/2 55/5/2
f 55/5/2 54/5/2 56/5/2
f 57/5/2 58/5/2 59/5/2
f 59/5/2 58/5/2 60/5/2
f 61/5/2 62/5/2 63/5/2
f 63/5/2 62/5/2 64/5/2
f 65/7/2 66/7/2 67/7/2
f 67/7/2 66/7/2 68/7/2
f 69/4/2 70/4/2 75/4/2
f 70/6/2 71/6/2 76/6/2
f 75/4/2 70/4/2 76/4/2
f 71/7/2 72/7/2 77/7/2
f 76/6/2 71/6/2 77/6/2
f 77/7/2 72/7/2 78/7/2
f 72/6/2 73/6/2 79/6/2
f 78/7/2 72/7/2 79/7/2
f 73/4/2 74/4/2 80/4/2
f 79/6/2 73/6/2 80/6/2
f 80/4/2 74/4/2 81/4/2
f 77/5/2 78/5/2 82/5/2
f 78/7/2 79/7/2 83/7/2
f 82/5/2 78/5/2 83/5/2
f 80/7/2 81/7/2 83/7/2
f 79/7/2 80/7/2 83/7/2
f 83/7/2 81/7/2 84/7/2
f 87/4/3 86/4/3 85/4/3
f 88/4/3 86/4/3 87/4/3
f 89/6/3 88/6/3 87/6/3
f 90/6/3 88/6/3 89/6/3
f 91/4/3 90/4/3 89/4/3
f 92/4/3 90/4/3 91/4/3
f 93/6/3 92/6/3 91/6/3
f 94/6/3 92/6/3 93/6/3
f 95/4/3 94/4/3 93/4/3
f 96/4/3 94/4/3 95/4/3
f 97/6/3 96/6/3 95/6/3
f 98/6/3 96/6/3 97/6/3
f 99/4/3 98/4/3 97/4/3
f 100/4/3 98/4/3 99/4/3
f 103/5/3 102/5/3 101/5/3
f 104/5/3 102/5/3 103/5/3
f 107/5/3 106/5/3 105/5/3
f 108/5/3 106/5/3 107/5/3
f 111/5/3 110/5/3 109/5/3
f 112/5/3 110/5/3 111/5/3
f 115/5/3 114/5/3 113/5/3
f 116/5/3 114/5/3 115/5/3
f 119/5/3 118/5/3 117/5/3
f 120/5/3 118/5/3 119/5/3
f 123/5/3 122/5/3 121/5/3
f 124/5/3 122/5/3 123/5/3
f 127/7/3 126/7/3 125/7/3
f 128/7/3 126/7/3 127/7/3
f 131/7/3 130/7/3 129/7/3
f 132/7/3 130/7/3 131/7/3
f 133/7/4 134/7/4 135/7/4
f 135/7/4 134/7/4 136/7/4
f 137/7/4 138/7/4 139/7/4
f 139/7/4 138/7/4 140/7/4
f 141/7/4 142/7/4 143/7/4
f 143/7/4 142/7/4 144/7/4
f 145/7/4 146/7/4 147/7/4
f 147/7/4 146/7/4 148/7/4
f 149/7/4 150/7/4 151/7/4
f 151/7/4 150/7/4 152/7/4
f 153/4/4 154/4/4 156/4/4
f 154/7/4 155/7/4 157/7/4
f 156/4/4 154/4/4 157/4/4
f 156/6/4 157/6/4 158/6/4
f 157/7/4 155/7/4 159/7/4
f 158/6/4 157/6/4 159/6/4
f 158/4/4 159/4/4 160/4/4
f 159/7/4 155/7/4 161/7/4
f 160/4/4 159/4/4 161/4/4
f 161/7/4 155/7/4 162/7/4
f 160/6/4 161/6/4 163/6/4
f 161/5/4 162/5/4 163/5/4
f 163/5/4 162/5/4 164/5/4
f 160/6/4 163/6/4 165/6/4
f 165/6/4 163/6/4 166/6/4
f 165/4/4 166/4/4 167/4/4
f 167/4/4 166/4/4 168/4/4
f 167/6/4 168/6/4 169/6/4
f 167/6/4 169/6/4 171/6/4
f 169/5/4 170/5/4 172/5/4
f 171/6/4 169/6/4 172/6/4
f 171/4/4 172/4/4 173/4/4
f 172/5/4 170/5/4 173/5/4
f 173/5/4 170/5/4 174/5/4
f 171/4/4 173/4/4 175/4/4
f 173/7/4 174/7/4 176/7/4
f 175/4/4 173/4/4 176/4/4
f 175/6/4 176/6/4 177/6/4
f 176/7/4 174/7/4 178/7/4
f 177/6/4 176/6/4 178/6/4
f 177/4/4 178/4/4 179/4/4
f 178/7/4 174/7/4 180/7/4
f 179/4/4 178/4/4 180/4/4
f 180/7/4 174/7/4 181/7/4
f 190/6/5 184/6/5 183/6/5
f 190/4/5 185/4/5 184/4/5
f 191/6/5 186/6/5 185/6/5
f 191/4/5 185/4/5 190/4/5
f 192/4/5 187/4/5 186/4/5
f 192/6/5 186/6/5 191/6/5
f 193/6/5 188/6/5 187/6/5
f 193/4/5 187/4/5 192/4/5
f 194/4/5 183/4/5 182/4/5
f 195/6/5 192/6/5 191/6/5
f 195/4/5 183/4/5 194/4/5
f 195/6/5 190/6/5 183/6/5
f 195/6/5 193/6/5 192/6/5
f 195/6/5 191/6/5 190/6/5
f 196/4/5 189/4/5 188/4/5
f 197/4/5 189/4/5 196/4/5
f 198/6/5 193/6/5 195/6/5
f 198/6/5 195/6/5 194/6/5
f 199/6/5 193/6/5 198/6/5
f 200/6/5 193/6/5 199/6/5
f 201/6/5 188/6/5 193/6/5
f 201/6/5 193/6/5 200/6/5
f 202/6/5 198/6/5 194/6/5
f 202/4/5 199/4/5 198/4/5
f 203/6/5 200/6/5 199/6/5
f 203/4/5 199/4/5 202/4/5
f 204/4/5 201/4/5 200/4/5
f 204/6/5 200/6/5 203/6/5
f 205/6/5 188/6/5 201/6/5
f 205/4/5 201/4/5 204/4/5
f 206/6/5 202/6/5 194/6/5
f 206/6/5 204/6/5 203/6/5
f 206/6/5 205/6/5 204/6/5
f 206/6/5 203/6/5 202/6/5
f 207/6/5 205/6/5 206/6/5
f 208/6/5 205/6/5 207/6/5
f 209/6/5 188/6/5 205/6/5
f 209/6/5 205/6/5 208/6/5
f 210/6/5 206/6/5 194/6/5
f 210/4/5 207/4/5 206/4/5
f 211/6/5 208/6/5 207/6/5
f 211/4/5 207/4/5 210/4/5
f 212/4/5 209/4/5 208/4/5
f 212/6/5 208/6/5 211/6/5
f 213/6/5 188/6/5 209/6/5
f 213/4/5 209/4/5 212/4/5
f 214/4/5 196/4/5 188/4/5
f 214/6/5 188/6/5 213/6/5
f 215/6/5 197/6/5 196/6/5
f 215/4/5 196/4/5 214/4/5
f 216/6/5 210/6/5 194/6/5
f 216/6/5 214/6/5 213/6/5
f 216/6/5 215/6/5 214/6/5
f 216/6/5 211/6/5 210/6/5
f 216/6/5 212/6/5 211/6/5
f 216/6/5 213/6/5 212/6/5
f 217/6/5 215/6/5 216/6/5
f 218/6/5 215/6/5 217/6/5
f 219/6/5 197/6/5 215/6/5
f 219/6/5 215/6/5 218/6/5
f 220/6/5 218/6/5 217/6/5
f 220/7/5 217/7/5 216/7/5
f 221/6/5 218/6/5 220/6/5
f 222/6/5 218/6/5 221/6/5
f 223/7/5 219/7/5 218/7/5
f 223/6/5 218/6/5 222/6/5
f 224/6/5 222/6/5 221/6/5
f 224/7/5 221/7/5 220/7/5
f 225/6/5 222/6/5 224/6/5
f 226/6/5 222/6/5 225/6/5
f 227/7/5 223/7/5 222/7/5
f 227/6/5 222/6/5 226/6/5
f 228/6/5 226/6/5 225/6/5
f 229/6/5 226/6/5 228/6/5
f 230/6/5 226/6/5 229/6/5
f 231/6/5 226/6/5 230/6/5
f 232/6/5 226/6/5 231/6/5
f 233/6/5 226/6/5 232/6/5
f 234/6/5 226/6/5 233/6/5
f 235/6/5 226/6/5 234/6/5
f 236/6/5 228/6/5 225/6/5
f 236/4/5 229/4/5 228/4/5
f 237/6/5 230/6/5 229/6/5
f 237/4/5 229/4/5 236/4/5
f 238/4/5 231/4/5 230/4/5
f 238/6/5 230/6/5 237/6/5
f 239/6/5 232/6/5 231/6/5
f 239/4/5 231/4/5 238/4/5
f 240/4/5 233/4/5 232/4/5
f 240/6/5 232/6/5 239/6/5
f 241/6/5 234/6/5 233/6/5
f 241/4/5 233/4/5 240/4/5
f 242/4/5 235/4/5 234/4/5
f 242/6/5 234/6/5 241/6/5
f 243/6/5 226/6/5 235/6/5
f 243/4/5 235/4/5 242/4/5
f 244/6/5 242/6/5 241/6/5
f 244/6/5 241/6/5 240/6/5
f 244/6/5 243/6/5 242/6/5
f 244/6/5 240/6/5 239/6/5
f 244/6/5 239/6/5 238/6/5
f 244/6/5 238/6/5 237/6/5
f 244/6/5 237/6/5 236/6/5
f 245/6/5 243/6/5 244/6/5
f 246/6/5 244/6/5 236/6/5
f 246/4/5 245/4/5 244/4/5
f 247/6/5 243/6/5 245/6/5
f 247/4/5 245/4/5 246/4/5
f 248/6/5 246/6/5 236/6/5
f 248/6/5 247/6/5 246/6/5
f 249/6/5 243/6/5 247/6/5
f 249/6/5 247/6/5 248/6/5
f 250/6/5 248/6/5 236/6/5
f 250/4/5 249/4/5 248/4/5
f 251/6/5 243/6/5 249/6/5
f 251/4/5 249/4/5 250/4/5
f 252/6/5 250/6/5 236/6/5
f 252/6/5 251/6/5 250/6/5
f 253/6/5 243/6/5 251/6/5
f 253/6/5 251/6/5 252/6/5
f 254/7/5 219/7/5 223/7/5
f 254/7/5 223/7/5 227/7/5
f 254/7/5 227/7/5 226/7/5
f 255/7/5 219/7/5 254/7/5
f 256/7/5 254/7/5 226/7/5
f 257/7/5 219/7/5 255/7/5
f 258/7/5 220/7/5 216/7/5
f 258/7/5 224/7/5 220/7/5
f 258/7/5 225/7/5 224/7/5
f 259/6/5 252/6/5 236/6/5
f 259/7/5 225/7/5 258/7/5
f 259/6/5 236/6/5 225/6/5
f 260/6/5 243/6/5 253/6/5
f 260/7/5 257/7/5 256/7/5
f 260/6/5 226/6/5 243/6/5
f 260/7/5 256/7/5 226/7/5
f 261/7/5 257/7/5 260/7/5
f 262/5/5 259/5/5 258/5/5
f 262/7/5 258/7/5 216/7/5
f 263/5/5 259/5/5 262/5/5
f 264/6/5 252/6/5 259/6/5
f 264/5/5 259/5/5 263/5/5
f 265/5/5 261/5/5 260/5/5
f 265/6/5 260/6/5 253/6/5
f 266/5/5 261/5/5 265/5/5
f 267/7/5 257/7/5 261/7/5
f 267/5/5 261/5/5 266/5/5
f 268/7/5 263/7/5 262/7/5
f 268/7/5 262/7/5 216/7/5
f 269/6/5 264/6/5 263/6/5
f 269/7/5 263/7/5 268/7/5
f 270/6/5 266/6/5 265/6/5
f 270/7/5 267/7/5 266/7/5
f 271/7/5 257/7/5 267/7/5
f 271/7/5 267/7/5 270/7/5
f 272/7/5 268/7/5 216/7/5
f 273/6/5 269/6/5 268/6/5
f 273/7/5 268/7/5 272/7/5
f 274/7/5 257/7/5 271/7/5
f 274/6/5 271/6/5 270/6/5
f 275/7/5 219/7/5 257/7/5
f 275/7/5 257/7/5 274/7/5
f 276/6/5 273/6/5 272/6/5
f 277/6/5 269/6/5 273/6/5
f 277/6/5 273/6/5 276/6/5
f 278/6/5 270/6/5 265/6/5
f 278/6/5 274/6/5 270/6/5
f 278/6/5 275/6/5 274/6/5
f 279/6/5 275/6/5 278/6/5
f 280/6/5 276/6/5 272/6/5
f 281/6/5 276/6/5 280/6/5
f 282/4/5 277/4/5 276/4/5
f 282/6/5 276/6/5 281/6/5
f 283/6/5 269/6/5 277/6/5
f 283/4/5 277/4/5 282/4/5
f 284/6/5 278/6/5 265/6/5
f 284/4/5 279/4/5 278/4/5
f 285/6/5 275/6/5 279/6/5
f 285/4/5 279/4/5 284/4/5
f 286/6/5 282/6/5 281/6/5
f 286/6/5 283/6/5 282/6/5
f 287/6/5 269/6/5 283/6/5
f 287/6/5 283/6/5 286/6/5
f 288/6/5 284/6/5 265/6/5
f 288/6/5 285/6/5 284/6/5
f 289/6/5 275/6/5 285/6/5
f 289/6/5 285/6/5 288/6/5
f 290/6/5 286/6/5 281/6/5
f 290/4/5 287/4/5 286/4/5
f 291/6/5 269/6/5 287/6/5
f 291/4/5 287/4/5 290/4/5
f 292/6/5 288/6/5 265/6/5
f 292/4/5 289/4/5 288/4/5
f 293/6/5 275/6/5 289/6/5
f 293/4/5 289/4/5 292/4/5
f 294/6/5 290/6/5 281/6/5
f 294/6/5 291/6/5 290/6/5
f 295/6/5 269/6/5 291/6/5
f 295/6/5 291/6/5 294/6/5
f 296/6/5 292/6/5 265/6/5
f 296/6/5 293/6/5 292/6/5
f 297/6/5 275/6/5 293/6/5
f 297/6/5 293/6/5 296/6/5
f 298/6/5 280/6/5 272/6/5
f 299/4/5 281/4/5 280/4/5
f 299/6/5 280/6/5 298/6/5
f 300/6/5 275/6/5 297/6/5
f 301/6/5 275/6/5 300/6/5
f 302/4/5 299/4/5 298/4/5
f 303/6/5 294/6/5 281/6/5
f 303/4/5 299/4/5 302/4/5
f 303/4/5 281/4/5 299/4/5
f 304/4/5 295/4/5 294/4/5
f 304/6/5 294/6/5 303/6/5
f 305/6/5 269/6/5 295/6/5
f 305/4/5 295/4/5 304/4/5
f 306/6/5 264/6/5 269/6/5
f 306/6/5 269/6/5 305/6/5
f 306/4/5 253/4/5 252/4/5
f 306/6/5 252/6/5 264/6/5
f 307/6/5 296/6/5 265/6/5
f 307/4/5 253/4/5 306/4/5
f 307/6/5 265/6/5 253/6/5
f 308/4/5 297/4/5 296/4/5
f 308/6/5 296/6/5 307/6/5
f 309/6/5 300/6/5 297/6/5
f 309/4/5 297/4/5 308/4/5
f 310/4/5 301/4/5 300/4/5
f 310/6/5 300/6/5 309/6/5
f 311/4/5 301/4/5 310/4/5
f 314/7/5 313/7/5 312/7/5
f 315/7/5 313/7/5 314/7/5
f 317/6/6 318/6/6 324/6/6
f 318/4/6 319/4/6 324/4/6
f 319/6/6 320/6/6 325/6/6
f 324/4/6 319/4/6 325/4/6
f 320/4/6 321/4/6 326/4/6
f 325/6/6 320/6/6 326/6/6
f 321/6/6 322/6/6 327/6/6
f 326/4/6 321/4/6 327/4/6
f 316/4/6 317/4/6 328/4/6
f 325/6/6 326/6/6 329/6/6
f 328/4/6 317/4/6 329/4/6
f 317/6/6 324/6/6 329/6/6
f 326/6/6 327/6/6 329/6/6
f 324/6/6 325/6/6 329/6/6
f 322/4/6 323/4/6 330/4/6
f 330/4/6 323/4/6 331/4/6
f 329/6/6 327/6/6 332/6/6
f 328/6/6 329/6/6 332/6/6
f 332/6/6 327/6/6 333/6/6
f 333/6/6 327/6/6 334/6/6
f 327/6/6 322/6/6 335/6/6
f 334/6/6 327/6/6 335/6/6
f 328/6/6 332/6/6 336/6/6
f 332/4/6 333/4/6 336/4/6
f 333/6/6 334/6/6 337/6/6
f 336/4/6 333/4/6 337/4/6
f 334/4/6 335/4/6 338/4/6
f 337/6/6 334/6/6 338/6/6
f 335/6/6 322/6/6 339/6/6
f 338/4/6 335/4/6 339/4/6
f 328/6/6 336/6/6 340/6/6
f 337/6/6 338/6/6 340/6/6
f 338/6/6 339/6/6 340/6/6
f 336/6/6 337/6/6 340/6/6
f 340/6/6 339/6/6 341/6/6
f 341/6/6 339/6/6 342/6/6
f 339/6/6 322/6/6 343/6/6
f 342/6/6 339/6/6 343/6/6
f 328/6/6 340/6/6 344/6/6
f 340/4/6 341/4/6 344/4/6
f 341/6/6 342/6/6 345/6/6
f 344/4/6 341/4/6 345/4/6
f 342/4/6 343/4/6 346/4/6
f 345/6/6 342/6/6 346/6/6
f 343/6/6 322/6/6 347/6/6
f 346/4/6 343/4/6 347/4/6
f 322/4/6 330/4/6 348/4/6
f 347/6/6 322/6/6 348/6/6
f 330/6/6 331/6/6 349/6/6
f 348/4/6 330/4/6 349/4/6
f 328/6/6 344/6/6 350/6/6
f 347/6/6 348/6/6 350/6/6
f 348/6/6 349/6/6 350/6/6
f 344/6/6 345/6/6 350/6/6
f 345/6/6 346/6/6 350/6/6
f 346/6/6 347/6/6 350/6/6
f 350/6/6 349/6/6 351/6/6
f 351/6/6 349/6/6 352/6/6
f 349/6/6 331/6/6 353/6/6
f 352/6/6 349/6/6 353/6/6
f 351/6/6 352/6/6 354/6/6
f 354/6/6 352/6/6 355/6/6
f 355/6/6 352/6/6 356/6/6
f 356/6/6 352/6/6 357/6/6
f 355/6/6 356/6/6 358/6/6
f 358/6/6 356/6/6 359/6/6
f 359/6/6 356/6/6 360/6/6
f 360/6/6 356/6/6 361/6/6
f 359/6/6 360/6/6 362/6/6
f 362/6/6 360/6/6 363/6/6
f 363/6/6 360/6/6 364/6/6
f 364/6/6 360/6/6 365/6/6
f 365/6/6 360/6/6 366/6/6
f 366/6/6 360/6/6 367/6/6
f 367/6/6 360/6/6 368/6/6
f 368/6/6 360/6/6 369/6/6
f 359/6/6 362/6/6 370/6/6
f 362/4/6 363/4/6 370/4/6
f 363/6/6 364/6/6 371/6/6
f 370/4/6 363/4/6 371/4/6
f 364/4/6 365/4/6 372/4/6
f 371/6/6 364/6/6 372/6/6
f 365/6/6 366/6/6 373/6/6
f 372/4/6 365/4/6 373/4/6
f 366/4/6 367/4/6 374/4/6
f 373/6/6 366/6/6 374/6/6
f 367/6/6 368/6/6 375/6/6
f 374/4/6 367/4/6 375/4/6
f 368/4/6 369/4/6 376/4/6
f 375/6/6 368/6/6 376/6/6
f 369/6/6 360/6/6 377/6/6
f 376/4/6 369/4/6 377/4/6
f 378/7/6 379/7/6 380/7/6
f 380/7/6 381/7/6 382/7/6
f 375/6/6 376/6/6 384/6/6
f 374/6/6 375/6/6 384/6/6
f 370/6/6 371/6/6 384/6/6
f 371/6/6 372/6/6 384/6/6
f 372/6/6 373/6/6 384/6/6
f 376/6/6 377/6/6 384/6/6
f 373/6/6 374/6/6 384/6/6
f 384/6/6 377/6/6 385/6/6
f 382/7/6 383/7/6 386/7/6
f 370/6/6 384/6/6 388/6/6
f 384/4/6 385/4/6 388/4/6
f 385/6/6 377/6/6 389/6/6
f 388/4/6 385/4/6 389/4/6
f 370/6/6 388/6/6 390/6/6
f 388/6/6 389/6/6 390/6/6
f 389/6/6 377/6/6 391/6/6
f 390/6/6 389/6/6 391/6/6
f 380/7/6 382/7/6 392/7/6
f 378/7/6 380/7/6 392/7/6
f 386/7/6 387/7/6 392/7/6
f 382/7/6 386/7/6 392/7/6
f 392/7/6 387/7/6 393/7/6
f 370/6/6 390/6/6 394/6/6
f 390/4/6 391/4/6 394/4/6
f 391/6/6 377/6/6 395/6/6
f 394/4/6 391/4/6 395/4/6
f 370/6/6 394/6/6 396/6/6
f 394/6/6 395/6/6 396/6/6
f 395/6/6 377/6/6 397/6/6
f 396/6/6 395/6/6 397/6/6
f 370/6/6 396/6/6 398/6/6
f 359/6/6 370/6/6 398/6/6
f 396/4/6 397/4/6 399/4/6
f 398/6/6 396/6/6 399/6/6
f 397/6/6 377/6/6 400/6/6
f 399/4/6 397/4/6 400/4/6
f 377/6/6 360/6/6 401/6/6
f 400/6/6 377/6/6 401/6/6
f 402/5/6 403/5/6 406/5/6
f 404/5/6 405/5/6 409/5/6
f 406/5/6 407/5/6 410/5/6
f 402/5/6 406/5/6 410/5/6
f 410/5/6 407/5/6 411/5/6
f 411/5/6 407/5/6 412/5/6
f 408/5/6 409/5/6 415/5/6
f 409/5/6 405/5/6 416/5/6
f 415/5/6 409/5/6 416/5/6
f 416/5/6 405/5/6 417/5/6
f 412/5/6 413/5/6 418/5/6
f 410/7/6 411/7/6 418/7/6
f 411/5/6 412/5/6 418/5/6
f 418/5/6 413/5/6 419/5/6
f 414/5/6 415/5/6 420/5/6
f 415/5/6 416/5/6 420/5/6
f 416/7/6 417/7/6 421/7/6
f 420/5/6 416/5/6 421/5/6
f 420/7/6 421/7/6 422/7/6
f 421/7/6 417/7/6 422/7/6
f 422/7/6 417/7/6 423/7/6
f 420/7/6 422/7/6 424/7/6
f 422/2/6 423/2/6 425/2/6
f 424/7/6 422/7/6 425/7/6
f 423/7/6 417/7/6 426/7/6
f 425/2/6 423/2/6 426/2/6
f 426/7/6 417/7/6 427/7/6
f 420/7/6 424/7/6 428/7/6
f 424/2/6 425/2/6 429/2/6
f 428/7/6 424/7/6 429/7/6
f 425/3/6 426/3/6 430/3/6
f 429/2/6 425/2/6 430/2/6
f 430/3/6 426/3/6 431/3/6
f 431/3/6 426/3/6 432/3/6
f 432/3/6 426/3/6 433/3/6
f 433/3/6 426/3/6 434/3/6
f 426/2/6 427/2/6 435/2/6
f 434/3/6 426/3/6 435/3/6
f 427/7/6 417/7/6 436/7/6
f 435/2/6 427/2/6 436/2/6
f 436/7/6 417/7/6 437/7/6
f 429/3/6 430/3/6 438/3/6
f 430/1/6 431/1/6 438/1/6
f 431/3/6 432/3/6 439/3/6
f 438/1/6 431/1/6 439/1/6
f 432/1/6 433/1/6 440/1/6
f 439/3/6 432/3/6 440/3/6
f 433/3/6 434/3/6 441/3/6
f 440/1/6 433/1/6 441/1/6
f 434/1/6 435/1/6 442/1/6
f 441/3/6 434/3/6 442/3/6
f 435/3/6 436/3/6 443/3/6
f 442/1/6 435/1/6 443/1/6
f 440/3/6 441/3/6 444/3/6
f 439/3/6 440/3/6 444/3/6
f 442/3/6 443/3/6 444/3/6
f 441/3/6 442/3/6 444/3/6
f 438/3/6 439/3/6 444/3/6
f 429/3/6 438/3/6 444/3/6
f 444/3/6 443/3/6 445/3/6
f 445/3/6 443/3/6 446/3/6
f 446/3/6 443/3/6 447/3/6
f 447/3/6 443/3/6 448/3/6
f 443/3/6 436/3/6 449/3/6
f 448/3/6 443/3/6 449/3/6
f 429/3/6 444/3/6 450/3/6
f 444/1/6 445/1/6 450/1/6
f 445/3/6 446/3/6 451/3/6
f 450/1/6 445/1/6 451/1/6
f 446/2/6 447/2/6 452/2/6
f 451/3/6 446/3/6 452/3/6
f 447/3/6 448/3/6 453/3/6
f 452/2/6 447/2/6 453/2/6
f 448/1/6 449/1/6 454/1/6
f 453/3/6 448/3/6 454/3/6
f 449/3/6 436/3/6 455/3/6
f 454/1/6 449/1/6 455/1/6
f 451/3/6 452/3/6 456/3/6
f 453/3/6 454/3/6 456/3/6
f 454/3/6 455/3/6 456/3/6
f 450/3/6 451/3/6 456/3/6
f 429/3/6 450/3/6 456/3/6
f 452/3/6 453/3/6 456/3/6
f 456/3/6 455/3/6 457/3/6
f 457/3/6 455/3/6 458/3/6
f 458/3/6 455/3/6 459/3/6
f 459/3/6 455/3/6 460/3/6
f 455/3/6 436/3/6 461/3/6
f 460/3/6 455/3/6 461/3/6
f 420/7/6 428/7/6 462/7/6
f 428/2/6 429/2/6 462/2/6
f 429/3/6 456/3/6 463/3/6
f 462/2/6 429/2/6 463/2/6
f 456/1/6 457/1/6 464/1/6
f 463/3/6 456/3/6 464/3/6
f 457/3/6 458/3/6 465/3/6
f 464/1/6 457/1/6 465/1/6
f 458/1/6 459/1/6 466/1/6
f 465/3/6 458/3/6 466/3/6
f 459/3/6 460/3/6 467/3/6
f 466/1/6 459/1/6 467/1/6
f 460/1/6 461/1/6 468/1/6
f 467/3/6 460/3/6 468/3/6
f 461/3/6 436/3/6 469/3/6
f 468/1/6 461/1/6 469/1/6
f 436/2/6 437/2/6 470/2/6
f 469/3/6 436/3/6 470/3/6
f 437/7/6 417/7/6 471/7/6
f 470/2/6 437/2/6 471/2/6
f 462/7/6 463/7/6 472/7/6
f 463/2/6 464/2/6 472/2/6
f 467/3/6 468/3/6 473/3/6
f 472/2/6 464/2/6 473/2/6
f 465/3/6 466/3/6 473/3/6
f 464/3/6 465/3/6 473/3/6
f 466/3/6 467/3/6 473/3/6
f 468/3/6 469/3/6 473/3/6
f 469/2/6 470/2/6 474/2/6
f 473/3/6 469/3/6 474/3/6
f 470/7/6 471/7/6 475/7/6
f 474/2/6 470/2/6 475/2/6
f 473/2/6 474/2/6 476/2/6
f 472/7/6 473/7/6 476/7/6
f 474/7/6 475/7/6 477/7/6
f 476/2/6 474/2/6 477/2/6
f 418/7/6 419/7/6 478/7/6
f 410/7/6 418/7/6 478/7/6
f 478/7/6 419/7/6 479/7/6
f 479/7/6 419/7/6 480/7/6
f 480/7/6 419/7/6 481/7/6
f 481/7/6 419/7/6 482/7/6
f 482/7/6 419/7/6 483/7/6
f 483/7/6 419/7/6 484/7/6
f 484/7/6 419/7/6 485/7/6
f 485/7/6 419/7/6 487/7/6
f 486/7/6 487/7/6 488/7/6
f 419/5/6 413/5/6 489/5/6
f 488/7/6 487/7/6 489/7/6
f 487/7/6 419/7/6 489/7/6
f 489/5/6 413/5/6 490/5/6
f 414/5/6 420/5/6 491/5/6
f 476/7/6 477/7/6 492/7/6
f 491/5/6 420/5/6 492/5/6
f 462/7/6 472/7/6 492/7/6
f 420/7/6 462/7/6 492/7/6
f 472/7/6 476/7/6 492/7/6
f 477/7/6 475/7/6 493/7/6
f 492/7/6 477/7/6 493/7/6
f 475/7/6 471/7/6 493/7/6
f 471/7/6 417/7/6 493/7/6
