# Blender v2.90.0 OBJ File: ''
# www.blender.org
mtllib SideBuildings1-5.mtl
o ObjObject.004
v 0.250000 -0.850000 0.350000
v 0.250000 -0.850000 -0.350000
v 0.250000 -0.750000 0.350000
v 0.250000 -0.750000 -0.350000
v 0.250000 -0.650000 0.050000
v 0.250000 -0.650000 -0.050000
v 0.250000 -0.550000 -0.050000
v 0.250000 -0.450000 0.050000
v 0.250000 -0.550000 -0.150000
v 0.250000 -0.450000 -0.150000
v 0.250000 -0.450000 0.250000
v 0.250000 -0.350000 0.150000
v 0.250000 -0.450000 -0.250000
v 0.250000 -0.350000 0.050000
v 0.250000 -0.350000 -0.150000
v 0.250000 -0.350000 -0.250000
v 0.250000 -0.250000 -0.050000
v 0.250000 -0.250000 -0.150000
v 0.250000 -0.150000 0.050000
v 0.250000 -0.150000 -0.050000
v 0.250000 0.650000 0.250000
v 0.250000 0.650000 0.150000
v 0.250000 -0.750000 0.450000
v 0.250000 0.750000 0.450000
v 0.250000 0.750000 0.350000
v 0.250000 -0.750000 -0.450000
v 0.250000 0.750000 -0.350000
v 0.250000 0.750000 -0.450000
v 0.250000 0.850000 0.350000
v 0.250000 0.850000 -0.350000
vt 0.384766 0.500000
vt 0.384766 0.500000
vt 0.384766 0.500000
vt 0.384766 0.500000
vt 0.384766 0.500000
vt 0.384766 0.500000
vt 0.384766 0.500000
vt 0.384766 0.500000
vt 0.384766 0.500000
vt 0.384766 0.500000
vt 0.384766 0.500000
vt 0.384766 0.500000
vt 0.384766 0.500000
vt 0.384766 0.500000
vt 0.384766 0.500000
vt 0.384766 0.500000
vt 0.384766 0.500000
vt 0.384766 0.500000
vt 0.384766 0.500000
vt 0.384766 0.500000
vt 0.384766 0.500000
vt 0.384766 0.500000
vt 0.384766 0.500000
vt 0.384766 0.500000
vt 0.384766 0.500000
vt 0.384766 0.500000
vt 0.384766 0.500000
vt 0.384766 0.500000
vt 0.384766 0.500000
vt 0.384766 0.500000
vn 1.0000 0.0000 0.0000
usemtl palette.004
s 1
f 1/1/1 2/2/1 3/3/1
f 3/3/1 2/2/1 4/4/1
f 5/5/1 6/6/1 7/7/1
f 5/5/1 7/7/1 8/8/1
f 7/7/1 9/9/1 8/8/1
f 8/8/1 9/9/1 10/10/1
f 11/11/1 8/8/1 12/12/1
f 10/10/1 13/13/1 12/12/1
f 8/8/1 10/10/1 12/12/1
f 12/12/1 13/13/1 14/14/1
f 14/14/1 13/13/1 15/15/1
f 15/15/1 13/13/1 16/16/1
f 14/14/1 15/15/1 17/17/1
f 17/17/1 15/15/1 18/18/1
f 14/14/1 17/17/1 19/19/1
f 19/19/1 17/17/1 20/20/1
f 11/11/1 12/12/1 21/21/1
f 21/21/1 12/12/1 22/22/1
f 23/23/1 3/3/1 24/24/1
f 24/24/1 3/3/1 25/25/1
f 4/4/1 26/26/1 27/27/1
f 27/27/1 26/26/1 28/28/1
f 25/25/1 27/27/1 29/29/1
f 29/29/1 27/27/1 30/30/1
