# Blender v2.90.0 OBJ File: ''
# www.blender.org
mtllib Street4-2.mtl
o ObjObject.007
v -3.450000 -2.400000 1.100000
v -3.450000 -3.300000 0.199999
v -3.450000 -3.300000 1.099999
v -3.450000 -2.400000 0.200000
v -3.450000 -2.400000 -0.200000
v -3.450000 -3.300000 -1.500001
v -3.450000 -3.300000 -0.200001
v -3.450000 -2.400000 -1.500000
v -3.450000 -2.400000 -2.100000
v -3.450000 -3.299999 -3.100000
v -3.450000 -3.300000 -2.100000
v -3.450000 -2.400000 -3.100000
v -3.450000 -1.500000 1.100000
v -3.450000 -2.200000 0.200000
v -3.450000 -2.200000 1.100000
v -3.450000 -1.500000 0.200000
v -3.450000 -1.500000 -0.200000
v -3.450000 -2.200000 -1.500000
v -3.450000 -2.200000 -0.200000
v -3.450000 -1.500000 -1.500000
v -3.450000 -1.500000 -2.100000
v -3.450000 -2.200000 -3.100000
v -3.450000 -2.200000 -2.100000
v -3.450000 -1.500000 -3.100000
v -3.450000 0.900000 1.100000
v -3.450000 -0.100000 -0.400000
v -3.450000 -0.100000 1.100000
v -3.450000 0.900000 -0.400000
v -3.450000 0.900000 -1.200000
v -3.450000 -0.100000 -2.200000
v -3.450000 -0.100000 -1.200000
v -3.450000 0.900000 -2.200000
v -3.450000 0.900000 -2.600000
v -3.450000 -0.099999 -3.200000
v -3.450000 -0.100000 -2.600000
v -3.450000 0.900001 -3.200000
v -3.450000 3.300000 1.100001
v -3.450000 2.200000 0.800000
v -3.450000 2.200000 1.100000
v -3.450000 3.300000 0.800001
v -3.450000 3.300000 0.500001
v -3.450000 2.200000 -0.400000
v -3.450000 2.200000 0.500000
v -3.450000 3.300000 -0.399999
v -3.450000 3.300000 -0.599999
v -3.450000 2.200000 -2.000000
v -3.450000 2.200000 -0.600000
v -3.450000 3.300000 -1.999999
v -3.450000 3.300000 -2.299999
v -3.450000 2.200001 -3.099999
v -3.450000 2.200001 -2.299999
v -3.450000 3.300000 -3.099999
v 1.450000 2.599999 3.200001
v -0.350000 3.299999 3.200001
v -0.350000 2.599999 3.200001
v 1.450000 3.299999 3.200001
v 2.550000 2.599999 3.200001
v 1.750000 3.299999 3.200001
v 1.750000 2.599999 3.200001
v 2.550000 3.299999 3.200001
v 3.450000 2.599999 3.200001
v 2.750000 3.299999 3.200001
v 2.750000 2.599999 3.200001
v 3.450000 3.299999 3.200001
vt 0.787109 0.500000
vt 0.787109 0.500000
vt 0.787109 0.500000
vt 0.787109 0.500000
vt 0.787109 0.500000
vt 0.787109 0.500000
vt 0.787109 0.500000
vt 0.787109 0.500000
vt 0.787109 0.500000
vt 0.787109 0.500000
vt 0.787109 0.500000
vt 0.787109 0.500000
vt 0.787109 0.500000
vt 0.787109 0.500000
vt 0.787109 0.500000
vt 0.787109 0.500000
vt 0.787109 0.500000
vt 0.787109 0.500000
vt 0.787109 0.500000
vt 0.787109 0.500000
vt 0.787109 0.500000
vt 0.787109 0.500000
vt 0.787109 0.500000
vt 0.787109 0.500000
vt 0.787109 0.500000
vt 0.787109 0.500000
vt 0.787109 0.500000
vt 0.787109 0.500000
vt 0.787109 0.500000
vt 0.787109 0.500000
vt 0.787109 0.500000
vt 0.787109 0.500000
vt 0.787109 0.500000
vt 0.787109 0.500000
vt 0.787109 0.500000
vt 0.787109 0.500000
vt 0.787109 0.500000
vt 0.787109 0.500000
vt 0.787109 0.500000
vt 0.787109 0.500000
vt 0.787109 0.500000
vt 0.787109 0.500000
vt 0.787109 0.500000
vt 0.787109 0.500000
vt 0.787109 0.500000
vt 0.787109 0.500000
vt 0.787109 0.500000
vt 0.787109 0.500000
vt 0.787109 0.500000
vt 0.787109 0.500000
vt 0.787109 0.500000
vt 0.787109 0.500000
vt 0.787109 0.500000
vt 0.787109 0.500000
vt 0.787109 0.500000
vt 0.787109 0.500000
vt 0.787109 0.500000
vt 0.787109 0.500000
vt 0.787109 0.500000
vt 0.787109 0.500000
vt 0.787109 0.500000
vt 0.787109 0.500000
vt 0.787109 0.500000
vt 0.787109 0.500000
vn -1.0000 0.0000 0.0000
vn 0.0000 0.0000 1.0000
usemtl palette.007
s 1
f 1/1/1 2/2/1 3/3/1
f 4/4/1 2/2/1 1/1/1
f 5/5/1 6/6/1 7/7/1
f 8/8/1 6/6/1 5/5/1
f 9/9/1 10/10/1 11/11/1
f 12/12/1 10/10/1 9/9/1
f 13/13/1 14/14/1 15/15/1
f 16/16/1 14/14/1 13/13/1
f 17/17/1 18/18/1 19/19/1
f 20/20/1 18/18/1 17/17/1
f 21/21/1 22/22/1 23/23/1
f 24/24/1 22/22/1 21/21/1
f 25/25/1 26/26/1 27/27/1
f 28/28/1 26/26/1 25/25/1
f 29/29/1 30/30/1 31/31/1
f 32/32/1 30/30/1 29/29/1
f 33/33/1 34/34/1 35/35/1
f 36/36/1 34/34/1 33/33/1
f 37/37/1 38/38/1 39/39/1
f 40/40/1 38/38/1 37/37/1
f 41/41/1 42/42/1 43/43/1
f 44/44/1 42/42/1 41/41/1
f 45/45/1 46/46/1 47/47/1
f 48/48/1 46/46/1 45/45/1
f 49/49/1 50/50/1 51/51/1
f 52/52/1 50/50/1 49/49/1
f 53/53/2 54/54/2 55/55/2
f 56/56/2 54/54/2 53/53/2
f 57/57/2 58/58/2 59/59/2
f 60/60/2 58/58/2 57/57/2
f 61/61/2 62/62/2 63/63/2
f 64/64/2 62/62/2 61/61/2
