# Blender v2.90.0 OBJ File: ''
# www.blender.org
mtllib Street4-1.mtl
o ObjObject.005
v -2.550000 -1.050000 2.300000
v -2.550000 -1.550000 1.900000
v -2.550000 -1.550000 2.300000
v -2.550000 -1.050000 1.900000
v -2.550000 -1.050000 1.500000
v -2.550000 -1.550000 -0.500000
v -2.550000 -1.550000 1.500000
v -2.550000 -1.050000 -0.500000
v -2.550000 -1.050000 -1.500000
v -2.550000 -1.550000 -1.900000
v -2.550000 -1.550000 -1.500000
v -2.550000 -1.050000 -1.900000
v -2.250000 0.750000 2.000000
v -2.250000 0.350000 1.700000
v -2.250000 0.350000 2.000000
v -2.250000 0.750000 1.700000
v -2.250000 0.750000 1.500000
v -2.250000 0.350000 1.100000
v -2.250000 0.350000 1.500000
v -2.250000 0.750000 1.100000
v -2.250000 0.750000 0.900000
v -2.250000 0.350000 0.500000
v -2.250000 0.350000 0.900000
v -2.250000 0.750000 0.500000
v -2.250000 0.750000 0.300000
v -2.250000 0.350000 -0.100000
v -2.250000 0.350000 0.300000
v -2.250000 0.750000 -0.100000
v -2.250000 0.750000 -0.500000
v -2.250000 0.350000 -1.600000
v -2.250000 0.350000 -0.500000
v -2.250000 0.750000 -1.600000
v -2.250000 1.650000 2.100000
v -2.250000 1.350000 0.800000
v -2.250000 1.350000 2.100000
v -2.250000 1.650000 0.800000
v -2.250000 1.650000 0.600000
v -2.250000 1.350000 -0.400000
v -2.250000 1.350000 0.600000
v -2.250000 1.650000 -0.400000
v -2.250000 1.650000 -0.600000
v -2.250000 1.350000 -1.000000
v -2.250000 1.350000 -0.600000
v -2.250000 1.650000 -1.000000
v -2.250000 1.650000 -1.200000
v -2.250000 1.350000 -1.600000
v -2.250000 1.350000 -1.200000
v -2.250000 1.650000 -1.600000
v -1.850000 3.050000 1.700001
v -1.850000 2.650000 1.200001
v -1.850000 2.650000 1.700001
v -1.850000 3.050000 1.200001
v -1.850000 3.050000 0.900000
v -1.850000 2.650000 0.500000
v -1.850000 2.650000 0.900000
v -1.850000 3.050000 0.500000
v -1.850000 3.050000 0.000000
v -1.850000 2.650000 -0.600000
v -1.850000 2.650000 0.000000
v -1.850000 3.050000 -0.600000
v -1.850000 3.050000 -0.800000
v -1.850000 2.650000 -1.200000
v -1.850000 2.650000 -0.800000
v -1.850000 3.050000 -1.200000
v -1.850000 3.550000 1.700001
v -1.850000 3.250000 1.200001
v -1.850000 3.250000 1.700001
v -1.850000 3.550000 1.200001
v -1.850000 3.550000 0.900001
v -1.850000 3.250000 0.500001
v -1.850000 3.250000 0.900001
v -1.850000 3.550000 0.500001
v -1.850000 3.550000 0.000001
v -1.850000 3.250000 -0.599999
v -1.850000 3.250000 0.000001
v -1.850000 3.550000 -0.599999
v -1.850000 3.550000 -0.799999
v -1.850000 3.250000 -1.200000
v -1.850000 3.250000 -0.799999
v -1.850000 3.550000 -1.199999
v -1.450000 2.550000 -1.600000
v -1.450000 3.050000 -1.600000
v -1.050000 2.550000 -1.600000
v -1.050000 3.050000 -1.600000
v -1.450000 3.250000 -1.600000
v -1.450000 3.650000 -1.599999
v -1.050000 3.250000 -1.600000
v -1.050000 3.650000 -1.599999
v -0.850000 2.550000 -1.600000
v -0.850000 3.050000 -1.600000
v -0.450000 2.550000 -1.600000
v -0.450000 3.050000 -1.600000
v -0.850000 3.250000 -1.600000
v -0.850000 3.650000 -1.599999
v -0.450000 3.250000 -1.600000
v -0.450000 3.650000 -1.599999
v -0.250000 2.550000 -1.600000
v -0.250000 3.050000 -1.600000
v -0.050000 2.550000 -1.600000
v -0.050000 3.050000 -1.600000
v -0.250000 3.250000 -1.600000
v -0.250000 3.650000 -1.599999
v -0.050000 3.250000 -1.600000
v -0.050000 3.650000 -1.599999
v 0.350000 2.550000 -1.600000
v 0.350000 3.050000 -1.600000
v 0.750000 2.550000 -1.600000
v 0.750000 3.050000 -1.600000
v 0.350000 3.250000 -1.600000
v 0.350000 3.650000 -1.599999
v 0.750000 3.250000 -1.600000
v 0.750000 3.650000 -1.599999
v 0.950000 2.550000 -1.600000
v 0.950000 3.650000 -1.599999
v 1.650000 2.550000 -1.600000
v 1.650000 3.650000 -1.599999
v 1.850000 2.550000 -1.600000
v 1.850000 3.050000 -1.600000
v 2.250000 2.550000 -1.600000
v 2.250000 3.050000 -1.600000
v 1.850000 3.250000 -1.600000
v 1.850000 3.650000 -1.599999
v 2.250000 3.250000 -1.600000
v 2.250000 3.650000 -1.599999
v -1.850000 1.350000 -2.000000
v -1.850000 1.650000 -2.000000
v -1.450000 1.350000 -2.000000
v -1.450000 1.650000 -2.000000
v -1.850000 0.350000 -2.000000
v -1.850000 0.750000 -2.000000
v -0.650000 0.350000 -2.000000
v -0.650000 0.750000 -2.000000
v -0.850000 1.350000 -2.000000
v -0.850000 1.650000 -2.000000
v -0.050000 1.350000 -2.000000
v -0.050000 1.650000 -2.000000
v -0.450000 0.350000 -2.000000
v -0.450000 0.750000 -2.000000
v 0.350000 0.350000 -2.000000
v 0.350000 0.750000 -2.000000
v 0.450000 1.350000 -2.000000
v 0.450000 1.650000 -2.000000
v 0.850000 1.350000 -2.000000
v 0.850000 1.650000 -2.000000
v 0.550000 0.350000 -2.000000
v 0.550000 0.750000 -2.000000
v 1.150000 0.350000 -2.000000
v 1.150000 0.750000 -2.000000
v 1.050000 1.350000 -2.000000
v 1.050000 1.650000 -2.000000
v 1.750000 1.350000 -2.000000
v 1.750000 1.650000 -2.000000
v 1.350000 0.350000 -2.000000
v 1.350000 0.750000 -2.000000
v 1.950000 0.350000 -2.000000
v 1.950000 0.750000 -2.000000
v 2.150000 0.350000 -2.000000
v 2.150000 0.750000 -2.000000
v 2.550000 0.350000 -2.000000
v 2.550000 0.750000 -2.000000
v 2.250000 1.350000 -2.000000
v 2.250000 1.650000 -2.000000
v 2.550000 1.350000 -2.000000
v 2.550000 1.650000 -2.000000
v -2.050000 -1.550000 -2.300000
v -2.050000 -1.050000 -2.300000
v -1.350000 -1.550000 -2.300000
v -1.350000 -1.050000 -2.300000
v -1.050000 -1.550000 -2.300000
v -1.050000 -1.050000 -2.300000
v -0.450000 -1.550000 -2.300000
v -0.450000 -1.050000 -2.300000
v -0.250000 -1.550000 -2.300000
v -0.250000 -1.050000 -2.300000
v 0.150000 -1.550000 -2.300000
v 0.150000 -1.050000 -2.300000
v -1.150000 -3.650000 -2.300000
v -1.150000 -3.049999 -2.300000
v 0.850000 -3.650000 -2.300000
v 0.850000 -3.049999 -2.300000
v 1.350000 -3.650000 -2.300000
v 1.350000 -3.049999 -2.300000
v 1.650000 -3.650000 -2.300000
v 1.650000 -3.049999 -2.300000
v 0.850000 -1.550000 -2.300000
v 0.850000 -1.050000 -2.300000
v 1.650000 -1.550000 -2.300000
v 1.650000 -1.050000 -2.300000
v 1.850000 -3.650000 -2.300000
v 1.850000 -3.049999 -2.300000
v 2.550000 -3.650000 -2.300000
v 2.550000 -3.049999 -2.300000
v 1.850000 -1.550000 -2.300000
v 1.850000 -1.050000 -2.300000
v 2.550000 -1.550000 -2.300000
v 2.550000 -1.050000 -2.300000
vt 0.759766 0.500000
vt 0.759766 0.500000
vt 0.759766 0.500000
vt 0.759766 0.500000
vt 0.759766 0.500000
vt 0.759766 0.500000
vt 0.759766 0.500000
vt 0.759766 0.500000
vt 0.759766 0.500000
vt 0.759766 0.500000
vt 0.759766 0.500000
vt 0.759766 0.500000
vt 0.759766 0.500000
vt 0.759766 0.500000
vt 0.759766 0.500000
vt 0.759766 0.500000
vt 0.759766 0.500000
vt 0.759766 0.500000
vt 0.759766 0.500000
vt 0.759766 0.500000
vt 0.759766 0.500000
vt 0.759766 0.500000
vt 0.759766 0.500000
vt 0.759766 0.500000
vt 0.759766 0.500000
vt 0.759766 0.500000
vt 0.759766 0.500000
vt 0.759766 0.500000
vt 0.759766 0.500000
vt 0.759766 0.500000
vt 0.759766 0.500000
vt 0.759766 0.500000
vt 0.759766 0.500000
vt 0.759766 0.500000
vt 0.759766 0.500000
vt 0.759766 0.500000
vt 0.759766 0.500000
vt 0.759766 0.500000
vt 0.759766 0.500000
vt 0.759766 0.500000
vt 0.759766 0.500000
vt 0.759766 0.500000
vt 0.759766 0.500000
vt 0.759766 0.500000
vt 0.759766 0.500000
vt 0.759766 0.500000
vt 0.759766 0.500000
vt 0.759766 0.500000
vt 0.759766 0.500000
vt 0.759766 0.500000
vt 0.759766 0.500000
vt 0.759766 0.500000
vt 0.759766 0.500000
vt 0.759766 0.500000
vt 0.759766 0.500000
vt 0.759766 0.500000
vt 0.759766 0.500000
vt 0.759766 0.500000
vt 0.759766 0.500000
vt 0.759766 0.500000
vt 0.759766 0.500000
vt 0.759766 0.500000
vt 0.759766 0.500000
vt 0.759766 0.500000
vt 0.759766 0.500000
vt 0.759766 0.500000
vt 0.759766 0.500000
vt 0.759766 0.500000
vt 0.759766 0.500000
vt 0.759766 0.500000
vt 0.759766 0.500000
vt 0.759766 0.500000
vt 0.759766 0.500000
vt 0.759766 0.500000
vt 0.759766 0.500000
vt 0.759766 0.500000
vt 0.759766 0.500000
vt 0.759766 0.500000
vt 0.759766 0.500000
vt 0.759766 0.500000
vt 0.759766 0.500000
vt 0.759766 0.500000
vt 0.759766 0.500000
vt 0.759766 0.500000
vt 0.759766 0.500000
vt 0.759766 0.500000
vt 0.759766 0.500000
vt 0.759766 0.500000
vt 0.759766 0.500000
vt 0.759766 0.500000
vt 0.759766 0.500000
vt 0.759766 0.500000
vt 0.759766 0.500000
vt 0.759766 0.500000
vt 0.759766 0.500000
vt 0.759766 0.500000
vt 0.759766 0.500000
vt 0.759766 0.500000
vt 0.759766 0.500000
vt 0.759766 0.500000
vt 0.759766 0.500000
vt 0.759766 0.500000
vt 0.759766 0.500000
vt 0.759766 0.500000
vt 0.759766 0.500000
vt 0.759766 0.500000
vt 0.759766 0.500000
vt 0.759766 0.500000
vt 0.759766 0.500000
vt 0.759766 0.500000
vt 0.759766 0.500000
vt 0.759766 0.500000
vt 0.759766 0.500000
vt 0.759766 0.500000
vt 0.759766 0.500000
vt 0.759766 0.500000
vt 0.759766 0.500000
vt 0.759766 0.500000
vt 0.759766 0.500000
vt 0.759766 0.500000
vt 0.759766 0.500000
vt 0.759766 0.500000
vt 0.759766 0.500000
vt 0.759766 0.500000
vt 0.759766 0.500000
vt 0.759766 0.500000
vt 0.759766 0.500000
vt 0.759766 0.500000
vt 0.759766 0.500000
vt 0.759766 0.500000
vt 0.759766 0.500000
vt 0.759766 0.500000
vt 0.759766 0.500000
vt 0.759766 0.500000
vt 0.759766 0.500000
vt 0.759766 0.500000
vt 0.759766 0.500000
vt 0.759766 0.500000
vt 0.759766 0.500000
vt 0.759766 0.500000
vt 0.759766 0.500000
vt 0.759766 0.500000
vt 0.759766 0.500000
vt 0.759766 0.500000
vt 0.759766 0.500000
vt 0.759766 0.500000
vt 0.759766 0.500000
vt 0.759766 0.500000
vt 0.759766 0.500000
vt 0.759766 0.500000
vt 0.759766 0.500000
vt 0.759766 0.500000
vt 0.759766 0.500000
vt 0.759766 0.500000
vt 0.759766 0.500000
vt 0.759766 0.500000
vt 0.759766 0.500000
vt 0.759766 0.500000
vt 0.759766 0.500000
vt 0.759766 0.500000
vt 0.759766 0.500000
vt 0.759766 0.500000
vt 0.759766 0.500000
vt 0.759766 0.500000
vt 0.759766 0.500000
vt 0.759766 0.500000
vt 0.759766 0.500000
vt 0.759766 0.500000
vt 0.759766 0.500000
vt 0.759766 0.500000
vt 0.759766 0.500000
vt 0.759766 0.500000
vt 0.759766 0.500000
vt 0.759766 0.500000
vt 0.759766 0.500000
vt 0.759766 0.500000
vt 0.759766 0.500000
vt 0.759766 0.500000
vt 0.759766 0.500000
vt 0.759766 0.500000
vt 0.759766 0.500000
vt 0.759766 0.500000
vt 0.759766 0.500000
vt 0.759766 0.500000
vt 0.759766 0.500000
vt 0.759766 0.500000
vt 0.759766 0.500000
vt 0.759766 0.500000
vt 0.759766 0.500000
vt 0.759766 0.500000
vt 0.759766 0.500000
vt 0.759766 0.500000
vt 0.759766 0.500000
vt 0.759766 0.500000
vt 0.759766 0.500000
vt 0.759766 0.500000
vn -1.0000 -0.0000 0.0000
vn 0.0000 0.0000 -1.0000
usemtl palette.005
s 1
f 1/1/1 2/2/1 3/3/1
f 4/4/1 2/2/1 1/1/1
f 5/5/1 6/6/1 7/7/1
f 8/8/1 6/6/1 5/5/1
f 9/9/1 10/10/1 11/11/1
f 12/12/1 10/10/1 9/9/1
f 13/13/1 14/14/1 15/15/1
f 16/16/1 14/14/1 13/13/1
f 17/17/1 18/18/1 19/19/1
f 20/20/1 18/18/1 17/17/1
f 21/21/1 22/22/1 23/23/1
f 24/24/1 22/22/1 21/21/1
f 25/25/1 26/26/1 27/27/1
f 28/28/1 26/26/1 25/25/1
f 29/29/1 30/30/1 31/31/1
f 32/32/1 30/30/1 29/29/1
f 33/33/1 34/34/1 35/35/1
f 36/36/1 34/34/1 33/33/1
f 37/37/1 38/38/1 39/39/1
f 40/40/1 38/38/1 37/37/1
f 41/41/1 42/42/1 43/43/1
f 44/44/1 42/42/1 41/41/1
f 45/45/1 46/46/1 47/47/1
f 48/48/1 46/46/1 45/45/1
f 49/49/1 50/50/1 51/51/1
f 52/52/1 50/50/1 49/49/1
f 53/53/1 54/54/1 55/55/1
f 56/56/1 54/54/1 53/53/1
f 57/57/1 58/58/1 59/59/1
f 60/60/1 58/58/1 57/57/1
f 61/61/1 62/62/1 63/63/1
f 64/64/1 62/62/1 61/61/1
f 65/65/1 66/66/1 67/67/1
f 68/68/1 66/66/1 65/65/1
f 69/69/1 70/70/1 71/71/1
f 72/72/1 70/70/1 69/69/1
f 73/73/1 74/74/1 75/75/1
f 76/76/1 74/74/1 73/73/1
f 77/77/1 78/78/1 79/79/1
f 80/80/1 78/78/1 77/77/1
f 81/81/2 82/82/2 83/83/2
f 83/83/2 82/82/2 84/84/2
f 85/85/2 86/86/2 87/87/2
f 87/87/2 86/86/2 88/88/2
f 89/89/2 90/90/2 91/91/2
f 91/91/2 90/90/2 92/92/2
f 93/93/2 94/94/2 95/95/2
f 95/95/2 94/94/2 96/96/2
f 97/97/2 98/98/2 99/99/2
f 99/99/2 98/98/2 100/100/2
f 101/101/2 102/102/2 103/103/2
f 103/103/2 102/102/2 104/104/2
f 105/105/2 106/106/2 107/107/2
f 107/107/2 106/106/2 108/108/2
f 109/109/2 110/110/2 111/111/2
f 111/111/2 110/110/2 112/112/2
f 113/113/2 114/114/2 115/115/2
f 115/115/2 114/114/2 116/116/2
f 117/117/2 118/118/2 119/119/2
f 119/119/2 118/118/2 120/120/2
f 121/121/2 122/122/2 123/123/2
f 123/123/2 122/122/2 124/124/2
f 125/125/2 126/126/2 127/127/2
f 127/127/2 126/126/2 128/128/2
f 129/129/2 130/130/2 131/131/2
f 131/131/2 130/130/2 132/132/2
f 133/133/2 134/134/2 135/135/2
f 135/135/2 134/134/2 136/136/2
f 137/137/2 138/138/2 139/139/2
f 139/139/2 138/138/2 140/140/2
f 141/141/2 142/142/2 143/143/2
f 143/143/2 142/142/2 144/144/2
f 145/145/2 146/146/2 147/147/2
f 147/147/2 146/146/2 148/148/2
f 149/149/2 150/150/2 151/151/2
f 151/151/2 150/150/2 152/152/2
f 153/153/2 154/154/2 155/155/2
f 155/155/2 154/154/2 156/156/2
f 157/157/2 158/158/2 159/159/2
f 159/159/2 158/158/2 160/160/2
f 161/161/2 162/162/2 163/163/2
f 163/163/2 162/162/2 164/164/2
f 165/165/2 166/166/2 167/167/2
f 167/167/2 166/166/2 168/168/2
f 169/169/2 170/170/2 171/171/2
f 171/171/2 170/170/2 172/172/2
f 173/173/2 174/174/2 175/175/2
f 175/175/2 174/174/2 176/176/2
f 177/177/2 178/178/2 179/179/2
f 179/179/2 178/178/2 180/180/2
f 181/181/2 182/182/2 183/183/2
f 183/183/2 182/182/2 184/184/2
f 185/185/2 186/186/2 187/187/2
f 187/187/2 186/186/2 188/188/2
f 189/189/2 190/190/2 191/191/2
f 191/191/2 190/190/2 192/192/2
f 193/193/2 194/194/2 195/195/2
f 195/195/2 194/194/2 196/196/2
