# Blender v2.90.0 OBJ File: ''
# www.blender.org
o ObjObject.008
v -2.500000 -2.300000 1.650000
v -2.500000 -2.800000 1.149999
v -2.500000 -2.800000 1.649999
v -2.500000 -2.300000 1.150000
v -2.500000 -2.300000 0.750000
v -2.500000 -2.800000 -0.550000
v -2.500000 -2.800000 0.750000
v -2.500000 -2.300000 -0.550000
v -2.500000 -2.300000 -1.250000
v -2.500000 -2.800000 -1.750000
v -2.500000 -2.800000 -1.250000
v -2.500000 -2.300000 -1.750000
v -2.500000 -2.300000 -1.950000
v -2.500000 -2.799999 -2.450001
v -2.500000 -2.800000 -1.950001
v -2.500000 -2.299999 -2.450001
v -2.500000 -1.100000 2.050000
v -2.500000 -1.500000 0.850000
v -2.500000 -1.500000 2.050000
v -2.500000 -1.100000 0.850000
v -2.500000 -1.100000 0.650000
v -2.500000 -1.500000 -0.150000
v -2.500000 -1.500000 0.650000
v -2.500000 -1.100000 -0.150000
v -2.500000 -1.100000 -0.350000
v -2.500000 -1.500000 -0.950000
v -2.500000 -1.500000 -0.350000
v -2.500000 -1.100000 -0.950000
v -2.500000 -1.100000 -1.150000
v -2.500000 -1.500000 -1.750000
v -2.500000 -1.500000 -1.150000
v -2.500000 -1.100000 -1.750000
v -2.500000 -1.100000 -1.950000
v -2.500000 -1.500000 -2.350000
v -2.500000 -1.500000 -1.950000
v -2.500000 -1.100000 -2.350000
v -2.500000 -0.200000 2.050000
v -2.500000 -0.500000 1.650000
v -2.500000 -0.500000 2.050000
v -2.500000 -0.200000 1.650000
v -2.500000 -0.200000 1.050000
v -2.500000 -0.500000 0.250000
v -2.500000 -0.500000 1.050000
v -2.500000 -0.200000 0.250000
v -2.500000 -0.200000 -0.250000
v -2.500000 -0.500000 -0.650000
v -2.500000 -0.500000 -0.250000
v -2.500000 -0.200000 -0.650000
v -2.500000 -0.200000 -0.850000
v -2.500000 -0.500000 -1.550000
v -2.500000 -0.500000 -0.850000
v -2.500000 -0.200000 -1.550000
v -2.500000 -0.200000 -2.050000
v -2.500000 -0.500000 -2.350000
v -2.500000 -0.500000 -2.050000
v -2.500000 -0.200000 -2.350000
v -2.100000 1.200000 1.650000
v -2.100000 0.700000 1.250000
v -2.100000 0.700000 1.650000
v -2.100000 1.200000 1.250000
v -2.100000 1.200000 1.050000
v -2.100000 0.700000 0.650000
v -2.100000 0.700000 1.050000
v -2.100000 1.200000 0.650000
v -2.100000 1.200000 0.450000
v -2.100000 0.700000 0.250000
v -2.100000 0.700000 0.450000
v -2.100000 1.200000 0.250000
v -2.100000 1.200000 -0.150000
v -2.100000 0.700000 -0.550000
v -2.100000 0.700000 -0.150000
v -2.100000 1.200000 -0.550000
v -2.100000 1.200000 -1.650000
v -2.100000 0.700000 -2.050000
v -2.100000 0.700000 -1.650000
v -2.100000 1.200000 -2.050000
v -2.100000 1.800000 1.650000
v -2.100000 1.400000 1.250000
v -2.100000 1.400000 1.650000
v -2.100000 1.800000 1.250000
v -2.100000 1.800000 1.050000
v -2.100000 1.400000 0.650000
v -2.100000 1.400000 1.050000
v -2.100000 1.800000 0.650000
v -2.100000 1.800000 0.450000
v -2.100000 1.400000 0.250000
v -2.100000 1.400000 0.450000
v -2.100000 1.800000 0.250000
v -2.100000 1.800000 -0.150000
v -2.100000 1.400000 -0.550000
v -2.100000 1.400000 -0.150000
v -2.100000 1.800000 -0.550000
v -2.100000 1.800000 -0.750000
v -2.100000 0.700000 -1.450000
v -2.100000 0.700000 -0.750000
v -2.100000 1.800000 -1.450000
v -2.100000 1.800000 -1.650000
v -2.100000 1.400000 -2.050000
v -2.100000 1.400000 -1.650000
v -2.100000 1.800000 -2.050000
v -1.800000 3.500000 1.250001
v -1.800000 2.800000 0.750000
v -1.800000 2.800000 1.250000
v -1.800000 3.500000 0.750001
v -1.800000 3.500000 0.350001
v -1.800000 2.800000 -0.350000
v -1.800000 2.800000 0.350000
v -1.800000 3.500000 -0.349999
v -1.800000 3.500000 -0.949999
v -1.800000 2.800000 -1.549999
v -1.800000 2.800000 -0.950000
v -1.800000 3.500000 -1.549999
v -1.700000 -0.500000 2.450000
v -2.100000 -0.200000 2.450000
v -2.100000 -0.500000 2.450000
v -1.700000 -0.200000 2.450000
v -1.100000 -0.500000 2.450000
v -1.500000 -0.200000 2.450000
v -1.500000 -0.500000 2.450000
v -1.100000 -0.200000 2.450000
v -1.000000 -1.500000 2.450000
v -2.100000 -1.100000 2.450000
v -2.100000 -1.500000 2.450000
v -1.000000 -1.100000 2.450000
v -0.400000 -3.600000 2.450000
v -2.000000 -2.200001 2.450000
v -2.000000 -3.600000 2.450000
v -0.400000 -2.200001 2.450000
v -0.200000 -1.500000 2.450000
v -0.600000 -1.100000 2.450000
v -0.600000 -1.500000 2.450000
v -0.200000 -1.100000 2.450000
v 0.100000 -0.500000 2.450000
v -0.900000 -0.200000 2.450000
v -0.900000 -0.500000 2.450000
v 0.100000 -0.200000 2.450000
v 0.400000 -1.500000 2.450000
v 0.000000 -1.100000 2.450000
v 0.000000 -1.500000 2.450000
v 0.400000 -1.100000 2.450000
v 1.000000 -1.500000 2.450000
v 0.600000 -1.100000 2.450000
v 0.600000 -1.500000 2.450000
v 1.000000 -1.100000 2.450000
v 1.500000 -3.600000 2.450000
v -0.200000 -2.200001 2.450000
v -0.200000 -3.600000 2.450000
v 1.500000 -2.200001 2.450000
v 1.600000 -0.500000 2.450000
v 0.300000 -0.200000 2.450000
v 0.300000 -0.500000 2.450000
v 1.600000 -0.200000 2.450000
v 2.400000 -2.600000 2.450000
v 1.700000 -2.200001 2.450000
v 1.700000 -2.600000 2.450000
v 2.400000 -2.200001 2.450000
v 2.400000 -1.500000 2.450000
v 1.200000 -1.100000 2.450000
v 1.200000 -1.500000 2.450000
v 2.400000 -1.100000 2.450000
v 2.500000 -0.500000 2.450000
v 1.800000 -0.200000 2.450000
v 1.800000 -0.500000 2.450000
v 2.500000 -0.200000 2.450000
v -1.300000 0.800000 2.050000
v -1.700000 1.200000 2.050000
v -1.700000 0.800000 2.050000
v -1.300000 1.200000 2.050000
v -1.300000 1.400000 2.050000
v -1.700000 1.700000 2.050000
v -1.700000 1.400000 2.050000
v -1.300000 1.700000 2.050000
v -0.500000 0.800000 2.050000
v -1.100000 1.200000 2.050000
v -1.100000 0.800000 2.050000
v -0.500000 1.200000 2.050000
v -0.500000 1.400000 2.050000
v -1.100000 1.700000 2.050000
v -1.100000 1.400000 2.050000
v -0.500000 1.700000 2.050000
v 0.400000 0.800000 2.050000
v 0.000000 1.200000 2.050000
v 0.000000 0.800000 2.050000
v 0.400000 1.200000 2.050000
v 0.400000 1.400000 2.050000
v 0.000000 1.700000 2.050000
v 0.000000 1.400000 2.050000
v 0.400000 1.700000 2.050000
v 1.200000 0.800000 2.050000
v 0.700000 1.200000 2.050000
v 0.700000 0.800000 2.050000
v 1.200000 1.200000 2.050000
v 2.000000 0.800000 2.050000
v 1.400000 1.200000 2.050000
v 1.400000 0.800000 2.050000
v 2.000000 1.200000 2.050000
v 2.000000 1.400000 2.050000
v 0.700000 1.700000 2.050000
v 0.700000 1.400000 2.050000
v 2.000000 1.700000 2.050000
v -1.000000 2.700000 1.750000
v -1.400000 3.000000 1.750000
v -1.400000 2.700000 1.750000
v -1.000000 3.000000 1.750000
v -1.000000 3.200000 1.750000
v -1.400000 3.600000 1.750001
v -1.400000 3.200000 1.750000
v -1.000000 3.600000 1.750001
v 0.900000 2.700000 1.750000
v -0.800000 3.000000 1.750000
v -0.800000 2.700000 1.750000
v 0.900000 3.000000 1.750000
v 0.900000 3.200000 1.750000
v -0.800000 3.600000 1.750001
v -0.800000 3.200000 1.750000
v 0.900000 3.600000 1.750001
vt 0.603516 0.500000
vt 0.603516 0.500000
vt 0.603516 0.500000
vt 0.603516 0.500000
vt 0.603516 0.500000
vt 0.603516 0.500000
vt 0.603516 0.500000
vt 0.603516 0.500000
vt 0.603516 0.500000
vt 0.603516 0.500000
vt 0.603516 0.500000
vt 0.603516 0.500000
vt 0.603516 0.500000
vt 0.603516 0.500000
vt 0.603516 0.500000
vt 0.603516 0.500000
vt 0.603516 0.500000
vt 0.603516 0.500000
vt 0.603516 0.500000
vt 0.603516 0.500000
vt 0.603516 0.500000
vt 0.603516 0.500000
vt 0.603516 0.500000
vt 0.603516 0.500000
vt 0.603516 0.500000
vt 0.603516 0.500000
vt 0.603516 0.500000
vt 0.603516 0.500000
vt 0.603516 0.500000
vt 0.603516 0.500000
vt 0.603516 0.500000
vt 0.603516 0.500000
vt 0.603516 0.500000
vt 0.603516 0.500000
vt 0.603516 0.500000
vt 0.603516 0.500000
vt 0.603516 0.500000
vt 0.603516 0.500000
vt 0.603516 0.500000
vt 0.603516 0.500000
vt 0.603516 0.500000
vt 0.603516 0.500000
vt 0.603516 0.500000
vt 0.603516 0.500000
vt 0.603516 0.500000
vt 0.603516 0.500000
vt 0.603516 0.500000
vt 0.603516 0.500000
vt 0.603516 0.500000
vt 0.603516 0.500000
vt 0.603516 0.500000
vt 0.603516 0.500000
vt 0.603516 0.500000
vt 0.603516 0.500000
vt 0.603516 0.500000
vt 0.603516 0.500000
vt 0.603516 0.500000
vt 0.603516 0.500000
vt 0.603516 0.500000
vt 0.603516 0.500000
vt 0.603516 0.500000
vt 0.603516 0.500000
vt 0.603516 0.500000
vt 0.603516 0.500000
vt 0.603516 0.500000
vt 0.603516 0.500000
vt 0.603516 0.500000
vt 0.603516 0.500000
vt 0.603516 0.500000
vt 0.603516 0.500000
vt 0.603516 0.500000
vt 0.603516 0.500000
vt 0.603516 0.500000
vt 0.603516 0.500000
vt 0.603516 0.500000
vt 0.603516 0.500000
vt 0.603516 0.500000
vt 0.603516 0.500000
vt 0.603516 0.500000
vt 0.603516 0.500000
vt 0.603516 0.500000
vt 0.603516 0.500000
vt 0.603516 0.500000
vt 0.603516 0.500000
vt 0.603516 0.500000
vt 0.603516 0.500000
vt 0.603516 0.500000
vt 0.603516 0.500000
vt 0.603516 0.500000
vt 0.603516 0.500000
vt 0.603516 0.500000
vt 0.603516 0.500000
vt 0.603516 0.500000
vt 0.603516 0.500000
vt 0.603516 0.500000
vt 0.603516 0.500000
vt 0.603516 0.500000
vt 0.603516 0.500000
vt 0.603516 0.500000
vt 0.603516 0.500000
vt 0.603516 0.500000
vt 0.603516 0.500000
vt 0.603516 0.500000
vt 0.603516 0.500000
vt 0.603516 0.500000
vt 0.603516 0.500000
vt 0.603516 0.500000
vt 0.603516 0.500000
vt 0.603516 0.500000
vt 0.603516 0.500000
vt 0.603516 0.500000
vt 0.603516 0.500000
vt 0.603516 0.500000
vt 0.603516 0.500000
vt 0.603516 0.500000
vt 0.603516 0.500000
vt 0.603516 0.500000
vt 0.603516 0.500000
vt 0.603516 0.500000
vt 0.603516 0.500000
vt 0.603516 0.500000
vt 0.603516 0.500000
vt 0.603516 0.500000
vt 0.603516 0.500000
vt 0.603516 0.500000
vt 0.603516 0.500000
vt 0.603516 0.500000
vt 0.603516 0.500000
vt 0.603516 0.500000
vt 0.603516 0.500000
vt 0.603516 0.500000
vt 0.603516 0.500000
vt 0.603516 0.500000
vt 0.603516 0.500000
vt 0.603516 0.500000
vt 0.603516 0.500000
vt 0.603516 0.500000
vt 0.603516 0.500000
vt 0.603516 0.500000
vt 0.603516 0.500000
vt 0.603516 0.500000
vt 0.603516 0.500000
vt 0.603516 0.500000
vt 0.603516 0.500000
vt 0.603516 0.500000
vt 0.603516 0.500000
vt 0.603516 0.500000
vt 0.603516 0.500000
vt 0.603516 0.500000
vt 0.603516 0.500000
vt 0.603516 0.500000
vt 0.603516 0.500000
vt 0.603516 0.500000
vt 0.603516 0.500000
vt 0.603516 0.500000
vt 0.603516 0.500000
vt 0.603516 0.500000
vt 0.603516 0.500000
vt 0.603516 0.500000
vt 0.603516 0.500000
vt 0.603516 0.500000
vt 0.603516 0.500000
vt 0.603516 0.500000
vt 0.603516 0.500000
vt 0.603516 0.500000
vt 0.603516 0.500000
vt 0.603516 0.500000
vt 0.603516 0.500000
vt 0.603516 0.500000
vt 0.603516 0.500000
vt 0.603516 0.500000
vt 0.603516 0.500000
vt 0.603516 0.500000
vt 0.603516 0.500000
vt 0.603516 0.500000
vt 0.603516 0.500000
vt 0.603516 0.500000
vt 0.603516 0.500000
vt 0.603516 0.500000
vt 0.603516 0.500000
vt 0.603516 0.500000
vt 0.603516 0.500000
vt 0.603516 0.500000
vt 0.603516 0.500000
vt 0.603516 0.500000
vt 0.603516 0.500000
vt 0.603516 0.500000
vt 0.603516 0.500000
vt 0.603516 0.500000
vt 0.603516 0.500000
vt 0.603516 0.500000
vt 0.603516 0.500000
vt 0.603516 0.500000
vt 0.603516 0.500000
vt 0.603516 0.500000
vt 0.603516 0.500000
vt 0.603516 0.500000
vt 0.603516 0.500000
vt 0.603516 0.500000
vt 0.603516 0.500000
vt 0.603516 0.500000
vt 0.603516 0.500000
vt 0.603516 0.500000
vt 0.603516 0.500000
vt 0.603516 0.500000
vt 0.603516 0.500000
vt 0.603516 0.500000
vt 0.603516 0.500000
vt 0.603516 0.500000
vt 0.603516 0.500000
vt 0.603516 0.500000
vt 0.603516 0.500000
vt 0.603516 0.500000
vt 0.603516 0.500000
vt 0.603516 0.500000
vt 0.603516 0.500000
vn -1.0000 0.0000 0.0000
vn 0.0000 0.0000 1.0000
s 1
f 1/1/1 2/2/1 3/3/1
f 4/4/1 2/2/1 1/1/1
f 5/5/1 6/6/1 7/7/1
f 8/8/1 6/6/1 5/5/1
f 9/9/1 10/10/1 11/11/1
f 12/12/1 10/10/1 9/9/1
f 13/13/1 14/14/1 15/15/1
f 16/16/1 14/14/1 13/13/1
f 17/17/1 18/18/1 19/19/1
f 20/20/1 18/18/1 17/17/1
f 21/21/1 22/22/1 23/23/1
f 24/24/1 22/22/1 21/21/1
f 25/25/1 26/26/1 27/27/1
f 28/28/1 26/26/1 25/25/1
f 29/29/1 30/30/1 31/31/1
f 32/32/1 30/30/1 29/29/1
f 33/33/1 34/34/1 35/35/1
f 36/36/1 34/34/1 33/33/1
f 37/37/1 38/38/1 39/39/1
f 40/40/1 38/38/1 37/37/1
f 41/41/1 42/42/1 43/43/1
f 44/44/1 42/42/1 41/41/1
f 45/45/1 46/46/1 47/47/1
f 48/48/1 46/46/1 45/45/1
f 49/49/1 50/50/1 51/51/1
f 52/52/1 50/50/1 49/49/1
f 53/53/1 54/54/1 55/55/1
f 56/56/1 54/54/1 53/53/1
f 57/57/1 58/58/1 59/59/1
f 60/60/1 58/58/1 57/57/1
f 61/61/1 62/62/1 63/63/1
f 64/64/1 62/62/1 61/61/1
f 65/65/1 66/66/1 67/67/1
f 68/68/1 66/66/1 65/65/1
f 69/69/1 70/70/1 71/71/1
f 72/72/1 70/70/1 69/69/1
f 73/73/1 74/74/1 75/75/1
f 76/76/1 74/74/1 73/73/1
f 77/77/1 78/78/1 79/79/1
f 80/80/1 78/78/1 77/77/1
f 81/81/1 82/82/1 83/83/1
f 84/84/1 82/82/1 81/81/1
f 85/85/1 86/86/1 87/87/1
f 88/88/1 86/86/1 85/85/1
f 89/89/1 90/90/1 91/91/1
f 92/92/1 90/90/1 89/89/1
f 93/93/1 94/94/1 95/95/1
f 96/96/1 94/94/1 93/93/1
f 97/97/1 98/98/1 99/99/1
f 100/100/1 98/98/1 97/97/1
f 101/101/1 102/102/1 103/103/1
f 104/104/1 102/102/1 101/101/1
f 105/105/1 106/106/1 107/107/1
f 108/108/1 106/106/1 105/105/1
f 109/109/1 110/110/1 111/111/1
f 112/112/1 110/110/1 109/109/1
f 113/113/2 114/114/2 115/115/2
f 116/116/2 114/114/2 113/113/2
f 117/117/2 118/118/2 119/119/2
f 120/120/2 118/118/2 117/117/2
f 121/121/2 122/122/2 123/123/2
f 124/124/2 122/122/2 121/121/2
f 125/125/2 126/126/2 127/127/2
f 128/128/2 126/126/2 125/125/2
f 129/129/2 130/130/2 131/131/2
f 132/132/2 130/130/2 129/129/2
f 133/133/2 134/134/2 135/135/2
f 136/136/2 134/134/2 133/133/2
f 137/137/2 138/138/2 139/139/2
f 140/140/2 138/138/2 137/137/2
f 141/141/2 142/142/2 143/143/2
f 144/144/2 142/142/2 141/141/2
f 145/145/2 146/146/2 147/147/2
f 148/148/2 146/146/2 145/145/2
f 149/149/2 150/150/2 151/151/2
f 152/152/2 150/150/2 149/149/2
f 153/153/2 154/154/2 155/155/2
f 156/156/2 154/154/2 153/153/2
f 157/157/2 158/158/2 159/159/2
f 160/160/2 158/158/2 157/157/2
f 161/161/2 162/162/2 163/163/2
f 164/164/2 162/162/2 161/161/2
f 165/165/2 166/166/2 167/167/2
f 168/168/2 166/166/2 165/165/2
f 169/169/2 170/170/2 171/171/2
f 172/172/2 170/170/2 169/169/2
f 173/173/2 174/174/2 175/175/2
f 176/176/2 174/174/2 173/173/2
f 177/177/2 178/178/2 179/179/2
f 180/180/2 178/178/2 177/177/2
f 181/181/2 182/182/2 183/183/2
f 184/184/2 182/182/2 181/181/2
f 185/185/2 186/186/2 187/187/2
f 188/188/2 186/186/2 185/185/2
f 189/189/2 190/190/2 191/191/2
f 192/192/2 190/190/2 189/189/2
f 193/193/2 194/194/2 195/195/2
f 196/196/2 194/194/2 193/193/2
f 197/197/2 198/198/2 199/199/2
f 200/200/2 198/198/2 197/197/2
f 201/201/2 202/202/2 203/203/2
f 204/204/2 202/202/2 201/201/2
f 205/205/2 206/206/2 207/207/2
f 208/208/2 206/206/2 205/205/2
f 209/209/2 210/210/2 211/211/2
f 212/212/2 210/210/2 209/209/2
f 213/213/2 214/214/2 215/215/2
f 216/216/2 214/214/2 213/213/2
