# Blender v2.90.0 OBJ File: ''
# www.blender.org
o ObjObject.021
v 2.050000 1.700000 1.250000
v 2.050000 1.700000 0.850000
v 2.050000 2.100000 1.250000
v 2.050000 2.100000 0.850000
v 2.050000 1.700000 0.650000
v 2.050000 1.700000 0.050000
v 2.050000 2.100000 0.650000
v 2.050000 2.100000 0.050000
v 2.050000 1.700000 -0.450000
v 2.050000 1.700000 -0.850000
v 2.050000 2.100000 -0.450000
v 2.050000 2.100000 -0.850000
v 2.050000 1.700000 -1.150000
v 2.050000 1.700000 -1.650000
v 2.050000 2.100000 -1.150000
v 2.050000 2.100000 -1.650000
v 2.050000 2.300000 1.250000
v 2.050000 2.300000 0.850000
v 2.050000 2.600000 1.250000
v 2.050000 2.600000 0.850000
v 2.050000 2.300000 0.650000
v 2.050000 2.300000 0.050000
v 2.050000 2.600000 0.650000
v 2.050000 2.600000 0.050000
v 2.050000 2.300000 -0.450000
v 2.050000 2.300000 -0.850000
v 2.050000 2.600000 -0.450000
v 2.050000 2.600000 -0.850000
v 2.050000 2.300000 -1.150000
v 2.050000 2.300000 -1.650000
v 2.050000 2.600000 -1.149999
v 2.050000 2.600000 -1.649999
v 2.450000 -2.700000 1.549999
v 2.450000 -2.700000 -1.950001
v 2.450000 -1.300000 1.550000
v 2.450000 -1.300000 -1.950000
v 2.450000 -0.600000 1.650000
v 2.450000 -0.600000 0.550000
v 2.450000 -0.200000 1.650000
v 2.450000 -0.200000 0.550000
v 2.450000 -0.600000 0.150000
v 2.450000 -0.600000 -0.250000
v 2.450000 -0.200000 0.150000
v 2.450000 -0.200000 -0.250000
v 2.450000 -0.600000 -0.450000
v 2.450000 -0.600000 -0.850000
v 2.450000 -0.200000 -0.450000
v 2.450000 -0.200000 -0.850000
v 2.450000 -0.600000 -1.050000
v 2.450000 -0.600000 -1.450000
v 2.450000 -0.200000 -1.050000
v 2.450000 -0.200000 -1.450000
v 2.450000 -0.600000 -1.650000
v 2.450000 -0.600000 -1.950000
v 2.450000 -0.200000 -1.650000
v 2.450000 -0.200000 -1.950000
v 2.450000 0.400000 1.650000
v 2.450000 0.400000 1.250000
v 2.450000 0.700000 1.650000
v 2.450000 0.700000 1.250000
v 2.450000 0.400000 1.050000
v 2.450000 0.400000 0.650000
v 2.450000 0.700000 1.050000
v 2.450000 0.700000 0.650000
v 2.450000 0.400000 0.450000
v 2.450000 0.400000 -0.550000
v 2.450000 0.700000 0.450000
v 2.450000 0.700000 -0.550000
v 2.450000 0.400000 -0.750000
v 2.450000 0.400000 -2.050000
v 2.450000 0.700000 -0.750000
v 2.450000 0.700000 -2.050000
v -2.050000 0.400000 2.050000
v -2.350000 0.700000 2.050000
v -2.350000 0.400000 2.050000
v -2.050000 0.700000 2.050000
v -1.950000 -1.900000 2.050000
v -2.450000 -1.400000 2.050000
v -2.450000 -1.900000 2.050000
v -1.950000 -1.400000 2.050000
v -1.950000 -0.600000 2.050000
v -2.350000 -0.200000 2.050000
v -2.350000 -0.600000 2.050000
v -1.950000 -0.200000 2.050000
v -1.250000 -1.900000 2.050000
v -1.750000 -1.400000 2.050000
v -1.750000 -1.900000 2.050000
v -1.250000 -1.400000 2.050000
v -1.150000 -0.600000 2.050000
v -1.750000 -0.200000 2.050000
v -1.750000 -0.600000 2.050000
v -1.150000 -0.200000 2.050000
v -0.850000 0.400000 2.050000
v -1.550000 0.700000 2.050000
v -1.550000 0.400000 2.050000
v -0.850000 0.700000 2.050000
v -0.350000 -0.600000 2.050000
v -0.950000 -0.200000 2.050000
v -0.950000 -0.600000 2.050000
v -0.350000 -0.200000 2.050000
v -0.250000 0.400000 2.050000
v -0.650000 0.700000 2.050000
v -0.650000 0.400000 2.050000
v -0.250000 0.700000 2.050000
v 0.650000 -0.600000 2.050000
v -0.150000 -0.200000 2.050000
v -0.150000 -0.600000 2.050000
v 0.650000 -0.200000 2.050000
v 0.750000 -1.900000 2.050000
v -0.550000 -1.400000 2.050000
v -0.550000 -1.900000 2.050000
v 0.750000 -1.400000 2.050000
v 1.050000 0.400000 2.050000
v 0.250000 0.700000 2.050000
v 0.250000 0.400000 2.050000
v 1.050000 0.700000 2.050000
v 1.650000 -1.900000 2.050000
v 1.150000 -1.400000 2.050000
v 1.150000 -1.900000 2.050000
v 1.650000 -1.400000 2.050000
v 2.050000 -0.600000 2.050000
v 0.850000 -0.200000 2.050000
v 0.850000 -0.600000 2.050000
v 2.050000 -0.200000 2.050000
v 2.050000 0.400000 2.050000
v 1.650000 0.700000 2.050000
v 1.650000 0.400000 2.050000
v 2.050000 0.700000 2.050000
v -1.650000 1.600000 1.650000
v -2.050000 2.100000 1.650000
v -2.050000 1.600000 1.650000
v -1.650000 2.100000 1.650000
v -1.650000 2.300000 1.650000
v -2.050000 2.700000 1.650000
v -2.050000 2.300000 1.650000
v -1.650000 2.700000 1.650000
v -0.750000 1.600000 1.650000
v -1.450000 2.700000 1.650000
v -1.450000 1.600000 1.650000
v -0.750000 2.700000 1.650000
v -0.150000 1.600000 1.650000
v -0.550000 2.100000 1.650000
v -0.550000 1.600000 1.650000
v -0.150000 2.100000 1.650000
v -0.150000 2.300000 1.650000
v -0.550000 2.700000 1.650000
v -0.550000 2.300000 1.650000
v -0.150000 2.700000 1.650000
v 0.450000 1.600000 1.650000
v 0.250000 2.100000 1.650000
v 0.250000 1.600000 1.650000
v 0.450000 2.100000 1.650000
v 0.450000 2.300000 1.650000
v 0.250000 2.700000 1.650000
v 0.250000 2.300000 1.650000
v 0.450000 2.700000 1.650000
v 1.050000 1.600000 1.650000
v 0.650000 2.100000 1.650000
v 0.650000 1.600000 1.650000
v 1.050000 2.100000 1.650000
v 1.050000 2.300000 1.650000
v 0.650000 2.700000 1.650000
v 0.650000 2.300000 1.650000
v 1.050000 2.700000 1.650000
v 1.650000 1.600000 1.650000
v 1.250000 2.100000 1.650000
v 1.250000 1.600000 1.650000
v 1.650000 2.100000 1.650000
v 1.650000 2.300000 1.650000
v 1.250000 2.700000 1.650000
v 1.250000 2.300000 1.650000
v 1.650000 2.700000 1.650000
vt 0.759766 0.500000
vt 0.759766 0.500000
vt 0.759766 0.500000
vt 0.759766 0.500000
vt 0.759766 0.500000
vt 0.759766 0.500000
vt 0.759766 0.500000
vt 0.759766 0.500000
vt 0.759766 0.500000
vt 0.759766 0.500000
vt 0.759766 0.500000
vt 0.759766 0.500000
vt 0.759766 0.500000
vt 0.759766 0.500000
vt 0.759766 0.500000
vt 0.759766 0.500000
vt 0.759766 0.500000
vt 0.759766 0.500000
vt 0.759766 0.500000
vt 0.759766 0.500000
vt 0.759766 0.500000
vt 0.759766 0.500000
vt 0.759766 0.500000
vt 0.759766 0.500000
vt 0.759766 0.500000
vt 0.759766 0.500000
vt 0.759766 0.500000
vt 0.759766 0.500000
vt 0.759766 0.500000
vt 0.759766 0.500000
vt 0.759766 0.500000
vt 0.759766 0.500000
vt 0.759766 0.500000
vt 0.759766 0.500000
vt 0.759766 0.500000
vt 0.759766 0.500000
vt 0.759766 0.500000
vt 0.759766 0.500000
vt 0.759766 0.500000
vt 0.759766 0.500000
vt 0.759766 0.500000
vt 0.759766 0.500000
vt 0.759766 0.500000
vt 0.759766 0.500000
vt 0.759766 0.500000
vt 0.759766 0.500000
vt 0.759766 0.500000
vt 0.759766 0.500000
vt 0.759766 0.500000
vt 0.759766 0.500000
vt 0.759766 0.500000
vt 0.759766 0.500000
vt 0.759766 0.500000
vt 0.759766 0.500000
vt 0.759766 0.500000
vt 0.759766 0.500000
vt 0.759766 0.500000
vt 0.759766 0.500000
vt 0.759766 0.500000
vt 0.759766 0.500000
vt 0.759766 0.500000
vt 0.759766 0.500000
vt 0.759766 0.500000
vt 0.759766 0.500000
vt 0.759766 0.500000
vt 0.759766 0.500000
vt 0.759766 0.500000
vt 0.759766 0.500000
vt 0.759766 0.500000
vt 0.759766 0.500000
vt 0.759766 0.500000
vt 0.759766 0.500000
vt 0.759766 0.500000
vt 0.759766 0.500000
vt 0.759766 0.500000
vt 0.759766 0.500000
vt 0.759766 0.500000
vt 0.759766 0.500000
vt 0.759766 0.500000
vt 0.759766 0.500000
vt 0.759766 0.500000
vt 0.759766 0.500000
vt 0.759766 0.500000
vt 0.759766 0.500000
vt 0.759766 0.500000
vt 0.759766 0.500000
vt 0.759766 0.500000
vt 0.759766 0.500000
vt 0.759766 0.500000
vt 0.759766 0.500000
vt 0.759766 0.500000
vt 0.759766 0.500000
vt 0.759766 0.500000
vt 0.759766 0.500000
vt 0.759766 0.500000
vt 0.759766 0.500000
vt 0.759766 0.500000
vt 0.759766 0.500000
vt 0.759766 0.500000
vt 0.759766 0.500000
vt 0.759766 0.500000
vt 0.759766 0.500000
vt 0.759766 0.500000
vt 0.759766 0.500000
vt 0.759766 0.500000
vt 0.759766 0.500000
vt 0.759766 0.500000
vt 0.759766 0.500000
vt 0.759766 0.500000
vt 0.759766 0.500000
vt 0.759766 0.500000
vt 0.759766 0.500000
vt 0.759766 0.500000
vt 0.759766 0.500000
vt 0.759766 0.500000
vt 0.759766 0.500000
vt 0.759766 0.500000
vt 0.759766 0.500000
vt 0.759766 0.500000
vt 0.759766 0.500000
vt 0.759766 0.500000
vt 0.759766 0.500000
vt 0.759766 0.500000
vt 0.759766 0.500000
vt 0.759766 0.500000
vt 0.759766 0.500000
vt 0.759766 0.500000
vt 0.759766 0.500000
vt 0.759766 0.500000
vt 0.759766 0.500000
vt 0.759766 0.500000
vt 0.759766 0.500000
vt 0.759766 0.500000
vt 0.759766 0.500000
vt 0.759766 0.500000
vt 0.759766 0.500000
vt 0.759766 0.500000
vt 0.759766 0.500000
vt 0.759766 0.500000
vt 0.759766 0.500000
vt 0.759766 0.500000
vt 0.759766 0.500000
vt 0.759766 0.500000
vt 0.759766 0.500000
vt 0.759766 0.500000
vt 0.759766 0.500000
vt 0.759766 0.500000
vt 0.759766 0.500000
vt 0.759766 0.500000
vt 0.759766 0.500000
vt 0.759766 0.500000
vt 0.759766 0.500000
vt 0.759766 0.500000
vt 0.759766 0.500000
vt 0.759766 0.500000
vt 0.759766 0.500000
vt 0.759766 0.500000
vt 0.759766 0.500000
vt 0.759766 0.500000
vt 0.759766 0.500000
vt 0.759766 0.500000
vt 0.759766 0.500000
vt 0.759766 0.500000
vt 0.759766 0.500000
vt 0.759766 0.500000
vt 0.759766 0.500000
vt 0.759766 0.500000
vt 0.759766 0.500000
vt 0.759766 0.500000
vt 0.759766 0.500000
vt 0.759766 0.500000
vt 0.759766 0.500000
vn 1.0000 0.0000 0.0000
vn 0.0000 0.0000 1.0000
s 1
f 1/1/1 2/2/1 3/3/1
f 3/3/1 2/2/1 4/4/1
f 5/5/1 6/6/1 7/7/1
f 7/7/1 6/6/1 8/8/1
f 9/9/1 10/10/1 11/11/1
f 11/11/1 10/10/1 12/12/1
f 13/13/1 14/14/1 15/15/1
f 15/15/1 14/14/1 16/16/1
f 17/17/1 18/18/1 19/19/1
f 19/19/1 18/18/1 20/20/1
f 21/21/1 22/22/1 23/23/1
f 23/23/1 22/22/1 24/24/1
f 25/25/1 26/26/1 27/27/1
f 27/27/1 26/26/1 28/28/1
f 29/29/1 30/30/1 31/31/1
f 31/31/1 30/30/1 32/32/1
f 33/33/1 34/34/1 35/35/1
f 35/35/1 34/34/1 36/36/1
f 37/37/1 38/38/1 39/39/1
f 39/39/1 38/38/1 40/40/1
f 41/41/1 42/42/1 43/43/1
f 43/43/1 42/42/1 44/44/1
f 45/45/1 46/46/1 47/47/1
f 47/47/1 46/46/1 48/48/1
f 49/49/1 50/50/1 51/51/1
f 51/51/1 50/50/1 52/52/1
f 53/53/1 54/54/1 55/55/1
f 55/55/1 54/54/1 56/56/1
f 57/57/1 58/58/1 59/59/1
f 59/59/1 58/58/1 60/60/1
f 61/61/1 62/62/1 63/63/1
f 63/63/1 62/62/1 64/64/1
f 65/65/1 66/66/1 67/67/1
f 67/67/1 66/66/1 68/68/1
f 69/69/1 70/70/1 71/71/1
f 71/71/1 70/70/1 72/72/1
f 73/73/2 74/74/2 75/75/2
f 76/76/2 74/74/2 73/73/2
f 77/77/2 78/78/2 79/79/2
f 80/80/2 78/78/2 77/77/2
f 81/81/2 82/82/2 83/83/2
f 84/84/2 82/82/2 81/81/2
f 85/85/2 86/86/2 87/87/2
f 88/88/2 86/86/2 85/85/2
f 89/89/2 90/90/2 91/91/2
f 92/92/2 90/90/2 89/89/2
f 93/93/2 94/94/2 95/95/2
f 96/96/2 94/94/2 93/93/2
f 97/97/2 98/98/2 99/99/2
f 100/100/2 98/98/2 97/97/2
f 101/101/2 102/102/2 103/103/2
f 104/104/2 102/102/2 101/101/2
f 105/105/2 106/106/2 107/107/2
f 108/108/2 106/106/2 105/105/2
f 109/109/2 110/110/2 111/111/2
f 112/112/2 110/110/2 109/109/2
f 113/113/2 114/114/2 115/115/2
f 116/116/2 114/114/2 113/113/2
f 117/117/2 118/118/2 119/119/2
f 120/120/2 118/118/2 117/117/2
f 121/121/2 122/122/2 123/123/2
f 124/124/2 122/122/2 121/121/2
f 125/125/2 126/126/2 127/127/2
f 128/128/2 126/126/2 125/125/2
f 129/129/2 130/130/2 131/131/2
f 132/132/2 130/130/2 129/129/2
f 133/133/2 134/134/2 135/135/2
f 136/136/2 134/134/2 133/133/2
f 137/137/2 138/138/2 139/139/2
f 140/140/2 138/138/2 137/137/2
f 141/141/2 142/142/2 143/143/2
f 144/144/2 142/142/2 141/141/2
f 145/145/2 146/146/2 147/147/2
f 148/148/2 146/146/2 145/145/2
f 149/149/2 150/150/2 151/151/2
f 152/152/2 150/150/2 149/149/2
f 153/153/2 154/154/2 155/155/2
f 156/156/2 154/154/2 153/153/2
f 157/157/2 158/158/2 159/159/2
f 160/160/2 158/158/2 157/157/2
f 161/161/2 162/162/2 163/163/2
f 164/164/2 162/162/2 161/161/2
f 165/165/2 166/166/2 167/167/2
f 168/168/2 166/166/2 165/165/2
f 169/169/2 170/170/2 171/171/2
f 172/172/2 170/170/2 169/169/2
