# Blender v2.90.0 OBJ File: ''
# www.blender.org
o SideBuildings2-0
v -2.750000 -0.400000 1.650000
v -2.750000 -1.000000 0.750000
v -2.750000 -1.000000 1.650000
v -2.750000 -0.400000 0.750000
v -2.750000 -0.400000 -0.550000
v -2.750000 -1.000000 -1.750000
v -2.750000 -1.000000 -0.550000
v -2.750000 -0.400000 -1.750000
v -2.750000 -0.400000 -2.150000
v -2.750000 -1.000000 -2.850000
v -2.750000 -1.000000 -2.150000
v -2.750000 -0.400000 -2.850000
v -2.750000 -0.399999 -3.050000
v -2.750000 -0.999999 -3.550000
v -2.750000 -1.000000 -3.050000
v -2.750000 -0.399999 -3.550000
v -2.750000 1.699999 3.750000
v -2.750000 0.899999 2.750000
v -2.750000 0.899999 3.750000
v -2.750000 1.700000 2.750000
v -2.750000 1.700000 0.050000
v -2.750000 0.900000 -0.850000
v -2.750000 0.900000 0.050000
v -2.750000 1.700000 -0.850000
v -2.750000 1.700000 -1.150000
v -2.750000 0.900000 -2.350000
v -2.750000 0.900000 -1.150000
v -2.750000 1.700000 -2.350000
v -2.750000 1.700001 -2.750000
v -2.750000 0.900001 -3.150000
v -2.750000 0.900000 -2.750000
v -2.750000 1.700001 -3.150000
v -2.750000 3.099999 3.750000
v -2.750000 2.400000 2.150001
v -2.750000 2.399999 3.750000
v -2.750000 3.100000 2.150001
v -2.750000 3.100000 1.350001
v -2.750000 2.400000 -0.450000
v -2.750000 2.400000 1.350000
v -2.750000 3.100000 -0.449999
v -2.750000 3.100000 -0.750000
v -2.750000 2.400000 -1.450000
v -2.750000 2.400000 -0.750000
v -2.750000 3.100000 -1.450000
v -2.750000 3.100000 -2.250000
v -2.750000 2.400001 -3.150000
v -2.750000 2.400001 -2.250000
v -2.750000 3.100000 -3.150000
v -1.850000 0.400001 -3.750000
v -1.850000 1.600001 -3.750000
v -1.750000 -2.399999 -3.750000
v -1.750000 -1.899999 -3.750000
v -1.750000 -1.699999 -3.750000
v -1.750000 -0.699999 -3.750000
v -1.750000 2.300001 -3.750000
v -1.750000 3.400001 -3.750000
v -1.150000 2.300001 -3.750000
v -1.150000 2.800001 -3.750000
v -1.150000 3.000001 -3.750000
v -1.150000 3.400001 -3.750000
v -0.950000 -2.399999 -3.750000
v -0.950000 -1.899999 -3.750000
v -0.950000 -1.699999 -3.750000
v -0.950000 -0.699999 -3.750000
v -0.850000 0.400001 -3.750000
v -0.850000 1.600001 -3.750000
v -0.350000 -3.199999 -3.750000
v -0.350000 -0.699999 -3.750000
v 0.450000 0.400001 -3.750000
v 0.450000 1.600001 -3.750000
v 0.450000 2.200001 -3.750000
v 0.450000 3.400001 -3.750000
v 2.150000 0.300000 1.950000
v 2.150000 0.100001 -3.450000
v 2.150000 0.100000 1.950000
v 2.150000 0.300001 -3.450000
v -1.350000 0.400001 -3.750000
v -1.350000 1.600001 -3.750000
v -1.350000 2.300001 -3.750000
v -1.350000 3.400001 -3.750000
v -1.150000 -2.399999 -3.750000
v -1.150000 -1.899999 -3.750000
v -1.150000 -1.699999 -3.750000
v -1.150000 -0.699999 -3.750000
v -0.550000 -2.399999 -3.750000
v -0.550000 -1.899999 -3.750000
v -0.550000 -1.699999 -3.750000
v -0.550000 -0.699999 -3.750000
v 0.050000 0.400001 -3.750000
v 0.050000 1.600001 -3.750000
v 0.050000 2.300001 -3.750000
v 0.050000 2.800001 -3.750000
v 0.050000 3.000001 -3.750000
v 0.050000 3.400001 -3.750000
v 0.850000 -3.199999 -3.750000
v 0.850000 -0.699999 -3.750000
v 0.850000 2.200001 -3.750000
v 0.850000 3.400001 -3.750000
v 0.950000 0.400001 -3.750000
v 0.950000 1.600001 -3.750000
v 1.850000 -1.900000 1.250000
v 1.850000 -1.900000 0.650000
v 1.850000 -1.200000 1.250000
v 1.850000 -1.200000 0.650000
v 1.850000 -1.900000 0.350000
v 1.850000 -1.900000 -0.750000
v 1.850000 -1.200000 0.350000
v 1.850000 -1.200000 -0.750000
v 1.850000 -1.900000 -1.050000
v 1.850000 -1.900000 -1.850000
v 1.850000 -1.200000 -1.050000
v 1.850000 -1.200000 -1.850000
v 1.850000 -1.900000 -2.150000
v 1.850000 -1.899999 -2.950000
v 1.850000 -1.200000 -2.150000
v 1.850000 -1.200000 -2.950000
v 1.850000 0.900000 1.650000
v 1.850000 0.900000 -0.250000
v 1.850000 1.500000 1.650000
v 1.850000 1.500000 -0.250000
v 1.850000 0.900000 -0.650000
v 1.850000 0.900000 -1.250000
v 1.850000 1.500000 -0.650000
v 1.850000 1.500000 -1.250000
v 1.850000 0.900000 -2.350000
v 1.850000 0.900001 -3.150000
v 1.850000 1.500000 -2.350000
v 1.850000 1.500000 -3.150000
v 1.850000 2.600000 1.750000
v 1.850000 2.600000 0.750000
v 1.850000 3.100000 1.750000
v 1.850000 3.100000 0.750000
v 1.850000 2.600000 0.250000
v 1.850000 2.600000 -0.550000
v 1.850000 3.100000 0.250001
v 1.850000 3.100000 -0.550000
v 1.850000 2.600000 -0.850000
v 1.850000 2.600000 -1.250000
v 1.850000 3.100000 -0.850000
v 1.850000 3.100000 -1.250000
v 1.850000 2.600000 -1.649999
v 1.850000 2.600000 -2.849999
v 1.850000 3.100000 -1.649999
v 1.850000 3.100000 -2.849999
v 1.950000 0.999999 3.750000
v 1.950000 0.999999 3.250000
v 1.950000 1.499999 3.750000
v 1.950000 1.500000 3.250000
v 1.950000 1.000000 2.950000
v 1.950000 1.000000 2.450000
v 1.950000 1.500000 2.950000
v 1.950000 1.500000 2.450000
v 1.950000 2.599999 3.750000
v 1.950000 2.599999 2.550000
v 1.950000 2.999999 3.750000
v 1.950000 3.000000 2.550000
v 2.450000 0.100000 1.950000
v 2.450000 0.100000 1.850000
v 2.450000 0.200000 1.950000
v 2.450000 0.200000 1.850000
v 2.450000 0.100001 -3.350000
v 2.450000 0.100001 -3.450000
v 2.450000 0.200001 -3.350000
v 2.450000 0.200001 -3.450000
v 2.550000 0.100000 1.850000
v 2.550000 0.100000 1.750000
v 2.550000 0.200000 1.850000
v 2.550000 0.200000 1.750000
v 2.550000 0.100001 -3.250000
v 2.550000 0.100001 -3.350000
v 2.550000 0.200001 -3.250000
v 2.550000 0.200001 -3.350000
v 2.650000 0.100000 1.750000
v 2.650000 0.100000 1.650000
v 2.650000 0.200000 1.750000
v 2.650000 0.200000 1.650000
v 2.650000 0.100001 -3.150000
v 2.650000 0.100001 -3.250000
v 2.650000 0.200001 -3.150000
v 2.650000 0.200001 -3.250000
v 2.750000 0.100000 1.650000
v 2.750000 0.100001 -3.150000
v 2.750000 0.200000 1.650000
v 2.750000 0.200001 -3.150000
v 2.750000 0.200000 1.950000
v 2.750000 0.300000 1.950000
v 2.750000 0.200001 -3.450000
v 2.750000 0.300001 -3.450000
vt 0.900391 0.500000
vt 0.900391 0.500000
vt 0.900391 0.500000
vt 0.900391 0.500000
vt 0.900391 0.500000
vt 0.900391 0.500000
vt 0.900391 0.500000
vt 0.900391 0.500000
vt 0.900391 0.500000
vt 0.900391 0.500000
vt 0.900391 0.500000
vt 0.900391 0.500000
vt 0.900391 0.500000
vt 0.900391 0.500000
vt 0.900391 0.500000
vt 0.900391 0.500000
vt 0.900391 0.500000
vt 0.900391 0.500000
vt 0.900391 0.500000
vt 0.900391 0.500000
vt 0.900391 0.500000
vt 0.900391 0.500000
vt 0.900391 0.500000
vt 0.900391 0.500000
vt 0.900391 0.500000
vt 0.900391 0.500000
vt 0.900391 0.500000
vt 0.900391 0.500000
vt 0.900391 0.500000
vt 0.900391 0.500000
vt 0.900391 0.500000
vt 0.900391 0.500000
vt 0.900391 0.500000
vt 0.900391 0.500000
vt 0.900391 0.500000
vt 0.900391 0.500000
vt 0.900391 0.500000
vt 0.900391 0.500000
vt 0.900391 0.500000
vt 0.900391 0.500000
vt 0.900391 0.500000
vt 0.900391 0.500000
vt 0.900391 0.500000
vt 0.900391 0.500000
vt 0.900391 0.500000
vt 0.900391 0.500000
vt 0.900391 0.500000
vt 0.900391 0.500000
vt 0.560547 0.500000
vt 0.560547 0.500000
vt 0.560547 0.500000
vt 0.560547 0.500000
vt 0.900391 0.500000
vt 0.900391 0.500000
vt 0.900391 0.500000
vt 0.900391 0.500000
vt 0.900391 0.500000
vt 0.900391 0.500000
vt 0.900391 0.500000
vt 0.900391 0.500000
vt 0.900391 0.500000
vt 0.900391 0.500000
vt 0.900391 0.500000
vt 0.900391 0.500000
vt 0.900391 0.500000
vt 0.900391 0.500000
vt 0.900391 0.500000
vt 0.900391 0.500000
vt 0.900391 0.500000
vt 0.900391 0.500000
vt 0.900391 0.500000
vt 0.900391 0.500000
vt 0.900391 0.500000
vt 0.900391 0.500000
vt 0.900391 0.500000
vt 0.900391 0.500000
vt 0.900391 0.500000
vt 0.900391 0.500000
vt 0.900391 0.500000
vt 0.900391 0.500000
vt 0.900391 0.500000
vt 0.900391 0.500000
vt 0.900391 0.500000
vt 0.900391 0.500000
vt 0.900391 0.500000
vt 0.900391 0.500000
vt 0.900391 0.500000
vt 0.900391 0.500000
vt 0.900391 0.500000
vt 0.900391 0.500000
vt 0.900391 0.500000
vt 0.900391 0.500000
vt 0.900391 0.500000
vt 0.900391 0.500000
vt 0.900391 0.500000
vt 0.900391 0.500000
vt 0.900391 0.500000
vt 0.900391 0.500000
vt 0.900391 0.500000
vt 0.900391 0.500000
vt 0.900391 0.500000
vt 0.900391 0.500000
vt 0.900391 0.500000
vt 0.900391 0.500000
vt 0.900391 0.500000
vt 0.900391 0.500000
vt 0.900391 0.500000
vt 0.900391 0.500000
vt 0.560547 0.500000
vt 0.560547 0.500000
vt 0.560547 0.500000
vt 0.560547 0.500000
vt 0.560547 0.500000
vt 0.560547 0.500000
vt 0.560547 0.500000
vt 0.560547 0.500000
vt 0.560547 0.500000
vt 0.560547 0.500000
vt 0.560547 0.500000
vt 0.560547 0.500000
vt 0.560547 0.500000
vt 0.560547 0.500000
vt 0.560547 0.500000
vt 0.560547 0.500000
vt 0.560547 0.500000
vt 0.560547 0.500000
vt 0.560547 0.500000
vt 0.560547 0.500000
vt 0.560547 0.500000
vt 0.560547 0.500000
vt 0.560547 0.500000
vt 0.560547 0.500000
vt 0.560547 0.500000
vt 0.560547 0.500000
vt 0.560547 0.500000
vt 0.560547 0.500000
vt 0.560547 0.500000
vt 0.560547 0.500000
vt 0.560547 0.500000
vt 0.560547 0.500000
vt 0.900391 0.500000
vt 0.900391 0.500000
vt 0.900391 0.500000
vt 0.900391 0.500000
vt 0.900391 0.500000
vt 0.900391 0.500000
vt 0.900391 0.500000
vt 0.900391 0.500000
vt 0.900391 0.500000
vt 0.900391 0.500000
vt 0.900391 0.500000
vt 0.900391 0.500000
vt 0.900391 0.500000
vt 0.900391 0.500000
vt 0.900391 0.500000
vt 0.900391 0.500000
vt 0.900391 0.500000
vt 0.900391 0.500000
vt 0.900391 0.500000
vt 0.900391 0.500000
vt 0.900391 0.500000
vt 0.900391 0.500000
vt 0.900391 0.500000
vt 0.900391 0.500000
vt 0.900391 0.500000
vt 0.900391 0.500000
vt 0.900391 0.500000
vt 0.900391 0.500000
vt 0.900391 0.500000
vt 0.900391 0.500000
vt 0.900391 0.500000
vt 0.900391 0.500000
vt 0.900391 0.500000
vt 0.900391 0.500000
vt 0.900391 0.500000
vt 0.900391 0.500000
vt 0.900391 0.500000
vt 0.900391 0.500000
vt 0.900391 0.500000
vt 0.900391 0.500000
vt 0.900391 0.500000
vt 0.900391 0.500000
vt 0.900391 0.500000
vt 0.900391 0.500000
vt 0.900391 0.500000
vt 0.900391 0.500000
vt 0.900391 0.500000
vt 0.900391 0.500000
vn -1.0000 0.0000 0.0000
vn 1.0000 0.0000 0.0000
vn 0.0000 0.0000 1.0000
vn 0.0000 0.0000 -1.0000
vn 0.0000 -1.0000 -0.0000
vn 0.0000 1.0000 0.0000
s 1
f 1/1/1 2/2/1 3/3/1
f 4/4/1 2/2/1 1/1/1
f 5/5/1 6/6/1 7/7/1
f 8/8/1 6/6/1 5/5/1
f 9/9/1 10/10/1 11/11/1
f 12/12/1 10/10/1 9/9/1
f 13/13/1 14/14/1 15/15/1
f 16/16/1 14/14/1 13/13/1
f 17/17/1 18/18/1 19/19/1
f 20/20/1 18/18/1 17/17/1
f 21/21/1 22/22/1 23/23/1
f 24/24/1 22/22/1 21/21/1
f 25/25/1 26/26/1 27/27/1
f 28/28/1 26/26/1 25/25/1
f 29/29/1 30/30/1 31/31/1
f 32/32/1 30/30/1 29/29/1
f 33/33/1 34/34/1 35/35/1
f 36/36/1 34/34/1 33/33/1
f 37/37/1 38/38/1 39/39/1
f 40/40/1 38/38/1 37/37/1
f 41/41/1 42/42/1 43/43/1
f 44/44/1 42/42/1 41/41/1
f 45/45/1 46/46/1 47/47/1
f 48/48/1 46/46/1 45/45/1
f 73/49/1 74/50/1 75/51/1
f 76/52/1 74/50/1 73/49/1
f 101/53/2 102/54/2 103/55/2
f 103/55/2 102/54/2 104/56/2
f 105/57/2 106/58/2 107/59/2
f 107/59/2 106/58/2 108/60/2
f 109/61/2 110/62/2 111/63/2
f 111/63/2 110/62/2 112/64/2
f 113/65/2 114/66/2 115/67/2
f 115/67/2 114/66/2 116/68/2
f 117/69/2 118/70/2 119/71/2
f 119/71/2 118/70/2 120/72/2
f 121/73/2 122/74/2 123/75/2
f 123/75/2 122/74/2 124/76/2
f 125/77/2 126/78/2 127/79/2
f 127/79/2 126/78/2 128/80/2
f 129/81/2 130/82/2 131/83/2
f 131/83/2 130/82/2 132/84/2
f 133/85/2 134/86/2 135/87/2
f 135/87/2 134/86/2 136/88/2
f 137/89/2 138/90/2 139/91/2
f 139/91/2 138/90/2 140/92/2
f 141/93/2 142/94/2 143/95/2
f 143/95/2 142/94/2 144/96/2
f 145/97/2 146/98/2 147/99/2
f 147/99/2 146/98/2 148/100/2
f 149/101/2 150/102/2 151/103/2
f 151/103/2 150/102/2 152/104/2
f 153/105/2 154/106/2 155/107/2
f 155/107/2 154/106/2 156/108/2
f 157/109/2 158/110/2 159/111/2
f 159/111/2 158/110/2 160/112/2
f 161/113/2 162/114/2 163/115/2
f 163/115/2 162/114/2 164/116/2
f 165/117/2 166/118/2 167/119/2
f 167/119/2 166/118/2 168/120/2
f 169/121/2 170/122/2 171/123/2
f 171/123/2 170/122/2 172/124/2
f 173/125/2 174/126/2 175/127/2
f 175/127/2 174/126/2 176/128/2
f 177/129/2 178/130/2 179/131/2
f 179/131/2 178/130/2 180/132/2
f 181/133/2 182/134/2 183/135/2
f 183/135/2 182/134/2 184/136/2
f 185/137/2 183/135/2 186/138/2
f 184/136/2 187/139/2 186/138/2
f 183/135/2 184/136/2 186/138/2
f 186/138/2 187/139/2 188/140/2
f 157/109/3 73/49/3 75/51/3
f 159/111/3 73/49/3 157/109/3
f 185/137/3 73/49/3 159/111/3
f 186/138/3 73/49/3 185/137/3
f 165/117/3 160/112/3 158/110/3
f 167/119/3 160/112/3 165/117/3
f 173/125/3 168/120/3 166/118/3
f 175/127/3 168/120/3 173/125/3
f 181/133/3 176/128/3 174/126/3
f 183/135/3 176/128/3 181/133/3
f 177/129/4 179/131/4 182/134/4
f 182/134/4 179/131/4 184/136/4
f 169/121/4 171/123/4 178/130/4
f 178/130/4 171/123/4 180/132/4
f 161/113/4 163/115/4 170/122/4
f 170/122/4 163/115/4 172/124/4
f 74/50/4 76/52/4 162/114/4
f 162/114/4 76/52/4 164/116/4
f 164/116/4 76/52/4 187/139/4
f 187/139/4 76/52/4 188/140/4
f 49/141/4 50/142/4 77/143/4
f 77/143/4 50/142/4 78/144/4
f 55/145/4 56/146/4 79/147/4
f 79/147/4 56/146/4 80/148/4
f 51/149/4 52/150/4 81/151/4
f 81/151/4 52/150/4 82/152/4
f 53/153/4 54/154/4 83/155/4
f 83/155/4 54/154/4 84/156/4
f 61/157/4 62/158/4 85/159/4
f 85/159/4 62/158/4 86/160/4
f 63/161/4 64/162/4 87/163/4
f 87/163/4 64/162/4 88/164/4
f 65/165/4 66/166/4 89/167/4
f 89/167/4 66/166/4 90/168/4
f 57/169/4 58/170/4 91/171/4
f 91/171/4 58/170/4 92/172/4
f 59/173/4 60/174/4 93/175/4
f 93/175/4 60/174/4 94/176/4
f 67/177/4 68/178/4 95/179/4
f 95/179/4 68/178/4 96/180/4
f 71/181/4 72/182/4 97/183/4
f 97/183/4 72/182/4 98/184/4
f 69/185/4 70/186/4 99/187/4
f 99/187/4 70/186/4 100/188/4
f 158/110/5 157/109/5 75/51/5
f 166/118/5 165/117/5 158/110/5
f 174/126/5 173/125/5 166/118/5
f 177/129/5 174/126/5 166/118/5
f 177/129/5 181/133/5 174/126/5
f 182/134/5 181/133/5 177/129/5
f 169/121/5 166/118/5 158/110/5
f 169/121/5 177/129/5 166/118/5
f 178/130/5 177/129/5 169/121/5
f 161/113/5 158/110/5 75/51/5
f 161/113/5 169/121/5 158/110/5
f 170/122/5 169/121/5 161/113/5
f 74/50/5 161/113/5 75/51/5
f 162/114/5 161/113/5 74/50/5
f 160/112/5 185/137/5 159/111/5
f 167/119/5 185/137/5 160/112/5
f 168/120/5 185/137/5 167/119/5
f 175/127/5 185/137/5 168/120/5
f 176/128/5 185/137/5 175/127/5
f 183/135/5 185/137/5 176/128/5
f 180/132/5 184/136/5 179/131/5
f 172/124/5 180/132/5 171/123/5
f 164/116/5 172/124/5 163/115/5
f 187/139/5 184/136/5 180/132/5
f 187/139/5 172/124/5 164/116/5
f 187/139/5 180/132/5 172/124/5
f 73/49/6 186/138/6 76/52/6
f 76/52/6 186/138/6 188/140/6
