# Blender v2.90.0 OBJ File: ''
# www.blender.org
mtllib SideBuildings1-3.mtl
o SideBuildings1-3
v -2.450000 6.900002 -2.099999
v -2.450000 6.100000 -2.099999
v -1.850000 3.200000 0.100001
v -1.850000 2.700000 0.100000
v -1.850000 4.600000 0.100001
v -1.850000 4.100000 0.100001
v -1.450000 6.900002 -2.099999
v -1.450000 6.100000 -2.099999
v -1.350000 0.799999 3.200000
v -1.350000 0.099999 3.200000
v -0.750000 3.200000 0.100001
v -0.750000 2.700000 0.100000
v -0.650000 4.600000 0.100001
v -0.650000 4.100000 0.100001
v 0.050000 3.200000 0.100001
v 0.050000 2.700000 0.100000
v 0.250000 6.900002 -2.099999
v 0.250000 6.100000 -2.099999
v 0.750000 0.799999 3.200000
v 0.750000 0.099999 3.200000
v 1.750000 0.799999 3.200000
v 1.750000 0.099999 3.200000
v -1.750000 6.100000 -2.099999
v -1.750000 6.900002 -2.099999
v -1.450000 4.100000 0.100001
v -1.450000 4.600000 0.100001
v -1.250000 2.700000 0.100000
v -1.250000 3.200000 0.100001
v -0.650000 6.100000 -2.099999
v -0.650000 6.900002 -2.099999
v -0.250000 2.700000 0.100000
v -0.250000 3.200000 0.100001
v 0.450000 0.099999 3.200000
v 0.450000 0.799999 3.200000
v 0.450000 2.700000 0.100000
v 0.450000 3.200000 0.100001
v 0.450000 4.100000 0.100001
v 0.450000 4.600000 0.100001
v 1.550000 0.099999 3.200000
v 1.550000 0.799999 3.200000
v 2.250000 6.100000 -2.099999
v 2.250000 6.900002 -2.099999
v 2.350000 -6.900002 2.999999
v 2.350000 -6.900001 -3.200001
v 2.350000 -5.000000 2.999999
v 2.350000 -5.000000 -3.200001
v 2.350000 -3.800000 2.899999
v 2.350000 -3.800000 2.399999
v 2.350000 -3.200001 2.900000
v 2.350000 -3.200001 2.400000
v 2.350000 -3.800000 2.099999
v 2.350000 -3.800000 1.099999
v 2.350000 -3.200000 2.099999
v 2.350000 -3.200000 1.100000
v 2.350000 -3.800000 -0.300001
v 2.350000 -3.800000 -1.700001
v 2.350000 -3.200000 -0.300001
v 2.350000 -3.200000 -1.700001
v 2.350000 -3.800000 -2.000001
v 2.350000 -3.799999 -3.000001
v 2.350000 -3.200000 -2.000000
v 2.350000 -3.200000 -3.000000
v 2.450000 -1.900000 2.400000
v 2.450000 -1.900000 0.900000
v 2.450000 -1.200000 2.400000
v 2.450000 -1.200000 0.900000
v 2.450000 -1.900000 0.400000
v 2.450000 -1.900000 -1.200000
v 2.450000 -1.200000 0.400000
v 2.450000 -1.200000 -1.200000
v 2.450000 -1.900000 -1.500000
v 2.450000 -1.899999 -3.000000
v 2.450000 -1.200000 -1.500000
v 2.450000 -1.200000 -3.000000
v 2.450000 0.099999 3.200000
v 2.450000 0.100000 2.200000
v 2.450000 0.799999 3.200000
v 2.450000 0.800000 2.200000
v 2.450000 0.100000 1.800000
v 2.450000 0.100000 -0.600000
v 2.450000 0.800000 1.800000
v 2.450000 0.800000 -0.600000
v 2.450000 0.100000 -0.800000
v 2.450000 0.100000 -1.700000
v 2.450000 0.800000 -0.800000
v 2.450000 0.800000 -1.700000
v 2.450000 0.100000 -1.900000
v 2.450000 0.100000 -3.000000
v 2.450000 0.800000 -1.900000
v 2.450000 0.800000 -3.000000
vt 0.787109 0.500000
vt 0.787109 0.500000
vt 0.787109 0.500000
vt 0.787109 0.500000
vt 0.787109 0.500000
vt 0.787109 0.500000
vt 0.787109 0.500000
vt 0.787109 0.500000
vt 0.787109 0.500000
vt 0.787109 0.500000
vt 0.787109 0.500000
vt 0.787109 0.500000
vt 0.787109 0.500000
vt 0.787109 0.500000
vt 0.787109 0.500000
vt 0.787109 0.500000
vt 0.787109 0.500000
vt 0.787109 0.500000
vt 0.787109 0.500000
vt 0.787109 0.500000
vt 0.787109 0.500000
vt 0.787109 0.500000
vt 0.787109 0.500000
vt 0.787109 0.500000
vt 0.787109 0.500000
vt 0.787109 0.500000
vt 0.787109 0.500000
vt 0.787109 0.500000
vt 0.787109 0.500000
vt 0.787109 0.500000
vt 0.787109 0.500000
vt 0.787109 0.500000
vt 0.787109 0.500000
vt 0.787109 0.500000
vt 0.787109 0.500000
vt 0.787109 0.500000
vt 0.787109 0.500000
vt 0.787109 0.500000
vt 0.787109 0.500000
vt 0.787109 0.500000
vt 0.787109 0.500000
vt 0.787109 0.500000
vt 0.787109 0.500000
vt 0.787109 0.500000
vt 0.787109 0.500000
vt 0.787109 0.500000
vt 0.787109 0.500000
vt 0.787109 0.500000
vt 0.787109 0.500000
vt 0.787109 0.500000
vt 0.787109 0.500000
vt 0.787109 0.500000
vt 0.787109 0.500000
vt 0.787109 0.500000
vt 0.787109 0.500000
vt 0.787109 0.500000
vt 0.787109 0.500000
vt 0.787109 0.500000
vt 0.787109 0.500000
vt 0.787109 0.500000
vt 0.787109 0.500000
vt 0.787109 0.500000
vt 0.787109 0.500000
vt 0.787109 0.500000
vt 0.787109 0.500000
vt 0.787109 0.500000
vt 0.787109 0.500000
vt 0.787109 0.500000
vt 0.787109 0.500000
vt 0.787109 0.500000
vt 0.787109 0.500000
vt 0.787109 0.500000
vt 0.787109 0.500000
vt 0.787109 0.500000
vt 0.787109 0.500000
vt 0.787109 0.500000
vt 0.787109 0.500000
vt 0.787109 0.500000
vt 0.787109 0.500000
vt 0.787109 0.500000
vt 0.787109 0.500000
vt 0.787109 0.500000
vt 0.787109 0.500000
vt 0.787109 0.500000
vt 0.787109 0.500000
vt 0.787109 0.500000
vt 0.787109 0.500000
vt 0.787109 0.500000
vt 0.787109 0.500000
vt 0.787109 0.500000
vn 1.0000 -0.0000 0.0000
vn 0.0000 -0.0000 1.0000
usemtl SideBuildings1_4:palette
s 1
f 43/1/1 44/2/1 45/3/1
f 45/3/1 44/2/1 46/4/1
f 47/5/1 48/6/1 49/7/1
f 49/7/1 48/6/1 50/8/1
f 51/9/1 52/10/1 53/11/1
f 53/11/1 52/10/1 54/12/1
f 55/13/1 56/14/1 57/15/1
f 57/15/1 56/14/1 58/16/1
f 59/17/1 60/18/1 61/19/1
f 61/19/1 60/18/1 62/20/1
f 63/21/1 64/22/1 65/23/1
f 65/23/1 64/22/1 66/24/1
f 67/25/1 68/26/1 69/27/1
f 69/27/1 68/26/1 70/28/1
f 71/29/1 72/30/1 73/31/1
f 73/31/1 72/30/1 74/32/1
f 75/33/1 76/34/1 77/35/1
f 77/35/1 76/34/1 78/36/1
f 79/37/1 80/38/1 81/39/1
f 81/39/1 80/38/1 82/40/1
f 83/41/1 84/42/1 85/43/1
f 85/43/1 84/42/1 86/44/1
f 87/45/1 88/46/1 89/47/1
f 89/47/1 88/46/1 90/48/1
f 33/49/2 9/50/2 10/51/2
f 34/52/2 9/50/2 33/49/2
f 39/53/2 19/54/2 20/55/2
f 40/56/2 19/54/2 39/53/2
f 75/33/2 21/57/2 22/58/2
f 77/35/2 21/57/2 75/33/2
f 25/59/2 5/60/2 6/61/2
f 26/62/2 5/60/2 25/59/2
f 27/63/2 3/64/2 4/65/2
f 28/66/2 3/64/2 27/63/2
f 31/67/2 11/68/2 12/69/2
f 32/70/2 11/68/2 31/67/2
f 35/71/2 15/72/2 16/73/2
f 36/74/2 15/72/2 35/71/2
f 37/75/2 13/76/2 14/77/2
f 38/78/2 13/76/2 37/75/2
f 23/79/2 1/80/2 2/81/2
f 24/82/2 1/80/2 23/79/2
f 29/83/2 7/84/2 8/85/2
f 30/86/2 7/84/2 29/83/2
f 41/87/2 17/88/2 18/89/2
f 42/90/2 17/88/2 41/87/2
