# Blender v2.90.0 OBJ File: ''
# www.blender.org
o ObjObject.013
v -0.550000 0.750000 1.300000
v -0.550000 -0.050000 0.100000
v -0.550000 -0.050000 1.300000
v -0.550000 0.750000 0.100000
v -0.550000 0.750000 -0.200000
v -0.550000 -0.050000 -1.800000
v -0.550000 -0.050000 -0.200000
v -0.550000 0.750000 -1.800000
v -0.550000 0.750000 -2.300000
v -0.550000 -0.050000 -2.900000
v -0.550000 -0.050000 -2.300000
v -0.550000 0.750000 -2.900000
v -0.350000 -1.150001 3.300000
v -0.350000 -3.950000 -3.300001
v -0.350000 -3.950001 3.299999
v -0.350000 -1.149999 -3.300000
v 0.450000 3.950000 0.100001
v 0.450000 2.950000 -1.399999
v 0.450000 2.950000 0.100000
v 0.450000 3.950000 -1.399999
v 0.450000 3.950000 -2.099999
v 0.450000 2.950001 -3.099999
v 0.450000 2.950000 -2.099999
v 0.450000 3.950001 -3.099999
vt 0.857422 0.500000
vt 0.857422 0.500000
vt 0.857422 0.500000
vt 0.857422 0.500000
vt 0.857422 0.500000
vt 0.857422 0.500000
vt 0.857422 0.500000
vt 0.857422 0.500000
vt 0.857422 0.500000
vt 0.857422 0.500000
vt 0.857422 0.500000
vt 0.857422 0.500000
vt 0.857422 0.500000
vt 0.857422 0.500000
vt 0.857422 0.500000
vt 0.857422 0.500000
vt 0.857422 0.500000
vt 0.857422 0.500000
vt 0.857422 0.500000
vt 0.857422 0.500000
vt 0.857422 0.500000
vt 0.857422 0.500000
vt 0.857422 0.500000
vt 0.857422 0.500000
vn -1.0000 0.0000 0.0000
s 1
f 1/1/1 2/2/1 3/3/1
f 4/4/1 2/2/1 1/1/1
f 5/5/1 6/6/1 7/7/1
f 8/8/1 6/6/1 5/5/1
f 9/9/1 10/10/1 11/11/1
f 12/12/1 10/10/1 9/9/1
f 13/13/1 14/14/1 15/15/1
f 16/16/1 14/14/1 13/13/1
f 17/17/1 18/18/1 19/19/1
f 20/20/1 18/18/1 17/17/1
f 21/21/1 22/22/1 23/23/1
f 24/24/1 22/22/1 21/21/1
