# Blender v2.90.0 OBJ File: ''
# www.blender.org
o ObjObject.012
v -2.350000 -0.500000 1.650000
v -2.350000 -1.100000 0.750000
v -2.350000 -1.100000 1.650000
v -2.350000 -0.500000 0.750000
v -2.350000 -0.500000 -0.550000
v -2.350000 -1.100000 -1.750000
v -2.350000 -1.100000 -0.550000
v -2.350000 -0.500000 -1.750000
v -2.350000 -0.500000 -2.150000
v -2.350000 -1.100000 -2.850000
v -2.350000 -1.100000 -2.150000
v -2.350000 -0.500000 -2.850000
v -2.350000 -0.499999 -3.050000
v -2.350000 -1.099999 -3.550000
v -2.350000 -1.100000 -3.050000
v -2.350000 -0.499999 -3.550000
v -2.350000 1.599999 3.750000
v -2.350000 0.800000 2.750000
v -2.350000 0.799999 3.750000
v -2.350000 1.600000 2.750000
v -2.350000 1.600000 0.050000
v -2.350000 0.800000 -0.850000
v -2.350000 0.800000 0.050000
v -2.350000 1.600000 -0.850000
v -2.350000 1.600000 -1.150000
v -2.350000 0.800000 -2.350000
v -2.350000 0.800000 -1.150000
v -2.350000 1.600000 -2.350000
v -2.350000 1.600001 -2.750000
v -2.350000 0.800001 -3.150000
v -2.350000 0.800000 -2.750000
v -2.350000 1.600001 -3.150000
v -2.350000 2.999999 3.750000
v -2.350000 2.300000 2.150001
v -2.350000 2.299999 3.750000
v -2.350000 3.000000 2.150001
v -2.350000 3.000000 1.350001
v -2.350000 2.300000 -0.450000
v -2.350000 2.300000 1.350000
v -2.350000 3.000000 -0.450000
v -2.350000 3.000000 -0.750000
v -2.350000 2.300000 -1.450000
v -2.350000 2.300000 -0.750000
v -2.350000 3.000000 -1.450000
v -2.350000 3.000000 -2.250000
v -2.350000 2.300000 -3.150000
v -2.350000 2.300000 -2.250000
v -2.350000 3.000000 -3.150000
v 2.250000 -2.000000 1.250000
v 2.250000 -2.000000 0.650000
v 2.250000 -1.300000 1.250000
v 2.250000 -1.300000 0.650000
v 2.250000 -2.000000 0.350000
v 2.250000 -2.000000 -0.750000
v 2.250000 -1.300000 0.350000
v 2.250000 -1.300000 -0.750000
v 2.250000 -2.000000 -1.050000
v 2.250000 -2.000000 -1.850000
v 2.250000 -1.300000 -1.050000
v 2.250000 -1.300000 -1.850000
v 2.250000 -2.000000 -2.150000
v 2.250000 -2.000000 -2.950000
v 2.250000 -1.300000 -2.150000
v 2.250000 -1.299999 -2.950000
v 2.250000 0.800000 1.650000
v 2.250000 0.800000 -0.250000
v 2.250000 1.400000 1.650000
v 2.250000 1.400000 -0.250000
v 2.250000 0.800000 -0.650000
v 2.250000 0.800000 -1.250000
v 2.250000 1.400000 -0.650000
v 2.250000 1.400000 -1.250000
v 2.250000 0.800000 -2.350000
v 2.250000 0.800001 -3.150000
v 2.250000 1.400000 -2.350000
v 2.250000 1.400000 -3.150000
v 2.250000 2.500000 1.750000
v 2.250000 2.500000 0.750000
v 2.250000 3.000000 1.750000
v 2.250000 3.000000 0.750000
v 2.250000 2.500000 0.250000
v 2.250000 2.500000 -0.550000
v 2.250000 3.000000 0.250000
v 2.250000 3.000000 -0.550000
v 2.250000 2.500000 -0.850000
v 2.250000 2.500000 -1.250000
v 2.250000 3.000000 -0.850000
v 2.250000 3.000000 -1.250000
v 2.250000 2.500000 -1.650000
v 2.250000 2.500000 -2.849999
v 2.250000 3.000000 -1.649999
v 2.250000 3.000000 -2.849999
v 2.350000 0.899999 3.750000
v 2.350000 0.899999 3.250000
v 2.350000 1.399999 3.750000
v 2.350000 1.399999 3.250000
v 2.350000 0.899999 2.950000
v 2.350000 0.900000 2.450000
v 2.350000 1.399999 2.950000
v 2.350000 1.400000 2.450000
v 2.350000 2.499999 3.750000
v 2.350000 2.500000 2.550000
v 2.350000 2.899999 3.750000
v 2.350000 2.900000 2.550000
v -1.450000 0.300001 -3.750000
v -1.450000 1.500001 -3.750000
v -0.950000 0.300001 -3.750000
v -0.950000 1.500001 -3.750000
v -1.350000 2.200001 -3.750000
v -1.350000 3.300001 -3.750000
v -0.950000 2.200001 -3.750000
v -0.950000 3.300001 -3.750000
v -1.350000 -2.499999 -3.750000
v -1.350000 -1.999999 -3.750000
v -0.750000 -2.499999 -3.750000
v -0.750000 -1.999999 -3.750000
v -1.350000 -1.799999 -3.750000
v -1.350000 -0.799999 -3.750000
v -0.750000 -1.799999 -3.750000
v -0.750000 -0.799999 -3.750000
v -0.550000 -2.499999 -3.750000
v -0.550000 -1.999999 -3.750000
v -0.150000 -2.499999 -3.750000
v -0.150000 -1.999999 -3.750000
v -0.550000 -1.799999 -3.750000
v -0.550000 -0.799999 -3.750000
v -0.150000 -1.799999 -3.750000
v -0.150000 -0.799999 -3.750000
v -0.450000 0.300001 -3.750000
v -0.450000 1.500001 -3.750000
v 0.450000 0.300001 -3.750000
v 0.450000 1.500001 -3.750000
v -0.750000 2.200001 -3.750000
v -0.750000 2.700001 -3.750000
v 0.450000 2.200001 -3.750000
v 0.450000 2.700001 -3.750000
v -0.750000 2.900001 -3.750000
v -0.750000 3.300001 -3.750000
v 0.450000 2.900001 -3.750000
v 0.450000 3.300001 -3.750000
v 0.050000 -3.299999 -3.750000
v 0.050000 -0.799999 -3.750000
v 1.250000 -3.299999 -3.750000
v 1.250000 -0.799999 -3.750000
v 0.850000 2.100001 -3.750000
v 0.850000 3.300001 -3.750000
v 1.250000 2.100001 -3.750000
v 1.250000 3.300001 -3.750000
v 0.850000 0.300001 -3.750000
v 0.850000 1.500001 -3.750000
v 1.350000 0.300001 -3.750000
v 1.350000 1.500001 -3.750000
vt 0.900391 0.500000
vt 0.900391 0.500000
vt 0.900391 0.500000
vt 0.900391 0.500000
vt 0.900391 0.500000
vt 0.900391 0.500000
vt 0.900391 0.500000
vt 0.900391 0.500000
vt 0.900391 0.500000
vt 0.900391 0.500000
vt 0.900391 0.500000
vt 0.900391 0.500000
vt 0.900391 0.500000
vt 0.900391 0.500000
vt 0.900391 0.500000
vt 0.900391 0.500000
vt 0.900391 0.500000
vt 0.900391 0.500000
vt 0.900391 0.500000
vt 0.900391 0.500000
vt 0.900391 0.500000
vt 0.900391 0.500000
vt 0.900391 0.500000
vt 0.900391 0.500000
vt 0.900391 0.500000
vt 0.900391 0.500000
vt 0.900391 0.500000
vt 0.900391 0.500000
vt 0.900391 0.500000
vt 0.900391 0.500000
vt 0.900391 0.500000
vt 0.900391 0.500000
vt 0.900391 0.500000
vt 0.900391 0.500000
vt 0.900391 0.500000
vt 0.900391 0.500000
vt 0.900391 0.500000
vt 0.900391 0.500000
vt 0.900391 0.500000
vt 0.900391 0.500000
vt 0.900391 0.500000
vt 0.900391 0.500000
vt 0.900391 0.500000
vt 0.900391 0.500000
vt 0.900391 0.500000
vt 0.900391 0.500000
vt 0.900391 0.500000
vt 0.900391 0.500000
vt 0.900391 0.500000
vt 0.900391 0.500000
vt 0.900391 0.500000
vt 0.900391 0.500000
vt 0.900391 0.500000
vt 0.900391 0.500000
vt 0.900391 0.500000
vt 0.900391 0.500000
vt 0.900391 0.500000
vt 0.900391 0.500000
vt 0.900391 0.500000
vt 0.900391 0.500000
vt 0.900391 0.500000
vt 0.900391 0.500000
vt 0.900391 0.500000
vt 0.900391 0.500000
vt 0.900391 0.500000
vt 0.900391 0.500000
vt 0.900391 0.500000
vt 0.900391 0.500000
vt 0.900391 0.500000
vt 0.900391 0.500000
vt 0.900391 0.500000
vt 0.900391 0.500000
vt 0.900391 0.500000
vt 0.900391 0.500000
vt 0.900391 0.500000
vt 0.900391 0.500000
vt 0.900391 0.500000
vt 0.900391 0.500000
vt 0.900391 0.500000
vt 0.900391 0.500000
vt 0.900391 0.500000
vt 0.900391 0.500000
vt 0.900391 0.500000
vt 0.900391 0.500000
vt 0.900391 0.500000
vt 0.900391 0.500000
vt 0.900391 0.500000
vt 0.900391 0.500000
vt 0.900391 0.500000
vt 0.900391 0.500000
vt 0.900391 0.500000
vt 0.900391 0.500000
vt 0.900391 0.500000
vt 0.900391 0.500000
vt 0.900391 0.500000
vt 0.900391 0.500000
vt 0.900391 0.500000
vt 0.900391 0.500000
vt 0.900391 0.500000
vt 0.900391 0.500000
vt 0.900391 0.500000
vt 0.900391 0.500000
vt 0.900391 0.500000
vt 0.900391 0.500000
vt 0.900391 0.500000
vt 0.900391 0.500000
vt 0.900391 0.500000
vt 0.900391 0.500000
vt 0.900391 0.500000
vt 0.900391 0.500000
vt 0.900391 0.500000
vt 0.900391 0.500000
vt 0.900391 0.500000
vt 0.900391 0.500000
vt 0.900391 0.500000
vt 0.900391 0.500000
vt 0.900391 0.500000
vt 0.900391 0.500000
vt 0.900391 0.500000
vt 0.900391 0.500000
vt 0.900391 0.500000
vt 0.900391 0.500000
vt 0.900391 0.500000
vt 0.900391 0.500000
vt 0.900391 0.500000
vt 0.900391 0.500000
vt 0.900391 0.500000
vt 0.900391 0.500000
vt 0.900391 0.500000
vt 0.900391 0.500000
vt 0.900391 0.500000
vt 0.900391 0.500000
vt 0.900391 0.500000
vt 0.900391 0.500000
vt 0.900391 0.500000
vt 0.900391 0.500000
vt 0.900391 0.500000
vt 0.900391 0.500000
vt 0.900391 0.500000
vt 0.900391 0.500000
vt 0.900391 0.500000
vt 0.900391 0.500000
vt 0.900391 0.500000
vt 0.900391 0.500000
vt 0.900391 0.500000
vt 0.900391 0.500000
vt 0.900391 0.500000
vt 0.900391 0.500000
vt 0.900391 0.500000
vt 0.900391 0.500000
vt 0.900391 0.500000
vt 0.900391 0.500000
vn -1.0000 0.0000 0.0000
vn 1.0000 0.0000 0.0000
vn 0.0000 0.0000 -1.0000
s 1
f 1/1/1 2/2/1 3/3/1
f 4/4/1 2/2/1 1/1/1
f 5/5/1 6/6/1 7/7/1
f 8/8/1 6/6/1 5/5/1
f 9/9/1 10/10/1 11/11/1
f 12/12/1 10/10/1 9/9/1
f 13/13/1 14/14/1 15/15/1
f 16/16/1 14/14/1 13/13/1
f 17/17/1 18/18/1 19/19/1
f 20/20/1 18/18/1 17/17/1
f 21/21/1 22/22/1 23/23/1
f 24/24/1 22/22/1 21/21/1
f 25/25/1 26/26/1 27/27/1
f 28/28/1 26/26/1 25/25/1
f 29/29/1 30/30/1 31/31/1
f 32/32/1 30/30/1 29/29/1
f 33/33/1 34/34/1 35/35/1
f 36/36/1 34/34/1 33/33/1
f 37/37/1 38/38/1 39/39/1
f 40/40/1 38/38/1 37/37/1
f 41/41/1 42/42/1 43/43/1
f 44/44/1 42/42/1 41/41/1
f 45/45/1 46/46/1 47/47/1
f 48/48/1 46/46/1 45/45/1
f 49/49/2 50/50/2 51/51/2
f 51/51/2 50/50/2 52/52/2
f 53/53/2 54/54/2 55/55/2
f 55/55/2 54/54/2 56/56/2
f 57/57/2 58/58/2 59/59/2
f 59/59/2 58/58/2 60/60/2
f 61/61/2 62/62/2 63/63/2
f 63/63/2 62/62/2 64/64/2
f 65/65/2 66/66/2 67/67/2
f 67/67/2 66/66/2 68/68/2
f 69/69/2 70/70/2 71/71/2
f 71/71/2 70/70/2 72/72/2
f 73/73/2 74/74/2 75/75/2
f 75/75/2 74/74/2 76/76/2
f 77/77/2 78/78/2 79/79/2
f 79/79/2 78/78/2 80/80/2
f 81/81/2 82/82/2 83/83/2
f 83/83/2 82/82/2 84/84/2
f 85/85/2 86/86/2 87/87/2
f 87/87/2 86/86/2 88/88/2
f 89/89/2 90/90/2 91/91/2
f 91/91/2 90/90/2 92/92/2
f 93/93/2 94/94/2 95/95/2
f 95/95/2 94/94/2 96/96/2
f 97/97/2 98/98/2 99/99/2
f 99/99/2 98/98/2 100/100/2
f 101/101/2 102/102/2 103/103/2
f 103/103/2 102/102/2 104/104/2
f 105/105/3 106/106/3 107/107/3
f 107/107/3 106/106/3 108/108/3
f 109/109/3 110/110/3 111/111/3
f 111/111/3 110/110/3 112/112/3
f 113/113/3 114/114/3 115/115/3
f 115/115/3 114/114/3 116/116/3
f 117/117/3 118/118/3 119/119/3
f 119/119/3 118/118/3 120/120/3
f 121/121/3 122/122/3 123/123/3
f 123/123/3 122/122/3 124/124/3
f 125/125/3 126/126/3 127/127/3
f 127/127/3 126/126/3 128/128/3
f 129/129/3 130/130/3 131/131/3
f 131/131/3 130/130/3 132/132/3
f 133/133/3 134/134/3 135/135/3
f 135/135/3 134/134/3 136/136/3
f 137/137/3 138/138/3 139/139/3
f 139/139/3 138/138/3 140/140/3
f 141/141/3 142/142/3 143/143/3
f 143/143/3 142/142/3 144/144/3
f 145/145/3 146/146/3 147/147/3
f 147/147/3 146/146/3 148/148/3
f 149/149/3 150/150/3 151/151/3
f 151/151/3 150/150/3 152/152/3
