# Blender v2.90.0 OBJ File: ''
# www.blender.org
o ObjObject.015
v -0.800000 5.499999 4.600001
v -0.800000 5.500000 4.200001
v -0.800000 5.999999 4.600001
v -0.800000 6.000000 4.200001
v -0.800000 5.500000 3.100001
v -0.800000 5.500000 2.700001
v -0.800000 6.000000 3.100001
v -0.800000 6.000000 2.700001
v -0.800000 5.500000 2.300001
v -0.800000 5.500000 2.100001
v -0.800000 6.000000 2.300001
v -0.800000 6.000000 2.100001
v -0.800000 5.500000 1.900001
v -0.800000 5.500000 1.500001
v -0.800000 6.000000 1.900001
v -0.800000 6.000000 1.500001
v -0.800000 5.500000 1.300001
v -0.800000 5.500000 0.900001
v -0.800000 6.000000 1.300001
v -0.800000 6.000000 0.900001
v -0.800000 6.199999 4.600001
v -0.800000 6.199999 4.200001
v -0.800000 6.599999 4.600001
v -0.800000 6.599999 4.200001
v -0.800000 5.500000 4.000001
v -0.800000 5.500000 3.300001
v -0.800000 6.599999 4.000001
v -0.800000 6.599999 3.300001
v -0.800000 6.199999 3.100001
v -0.800000 6.199999 2.700001
v -0.800000 6.599999 3.100001
v -0.800000 6.599999 2.700001
v -0.800000 6.199999 2.300001
v -0.800000 6.199999 2.100001
v -0.800000 6.599999 2.300001
v -0.800000 6.599999 2.100001
v -0.800000 6.199999 1.900001
v -0.800000 6.199999 1.500001
v -0.800000 6.599999 1.900001
v -0.800000 6.599999 1.500001
v -0.800000 6.200000 1.300001
v -0.800000 6.200000 0.900001
v -0.800000 6.600000 1.300001
v -0.800000 6.600000 0.900001
v -0.400000 3.299999 4.900001
v -0.400000 3.299999 4.500000
v -0.400000 3.699999 4.900001
v -0.400000 3.699999 4.500000
v -0.400000 3.299999 4.300001
v -0.400000 3.299999 3.700001
v -0.400000 3.699999 4.300001
v -0.400000 3.699999 3.700001
v -0.400000 3.299999 3.500000
v -0.400000 3.299999 2.900001
v -0.400000 3.700000 3.500001
v -0.400000 3.700000 2.900001
v -0.400000 3.299999 2.700001
v -0.400000 3.300000 1.900001
v -0.400000 3.700000 2.700001
v -0.400000 3.700000 1.900001
v -0.400000 3.300000 1.700001
v -0.400000 3.300000 0.500001
v -0.400000 3.700000 1.700001
v -0.400000 3.700000 0.500001
v -0.400000 4.299999 4.900001
v -0.400000 4.299999 4.600000
v -0.400000 4.599999 4.900001
v -0.400000 4.599999 4.600001
v -0.400000 4.300000 4.100000
v -0.400000 4.300000 3.400001
v -0.400000 4.599999 4.100001
v -0.400000 4.599999 3.400001
v -0.400000 4.300000 3.200001
v -0.400000 4.300000 2.800001
v -0.400000 4.599999 3.200001
v -0.400000 4.599999 2.800001
v -0.400000 4.300000 2.300001
v -0.400000 4.300000 1.500001
v -0.400000 4.599999 2.300001
v -0.400000 4.599999 1.500001
v -0.400000 4.300000 0.900001
v -0.400000 4.300000 0.500001
v -0.400000 4.600000 0.900001
v -0.400000 4.600000 0.500001
v -0.100000 -0.700001 4.900000
v -0.100000 -0.700001 4.200000
v -0.100000 -0.100001 4.900000
v -0.100000 -0.100001 4.200000
v -0.100000 -0.700001 4.000000
v -0.100000 -0.700001 3.700000
v -0.100000 -0.100001 4.000000
v -0.100000 -0.100001 3.700000
v -0.100000 -0.700001 3.200000
v -0.100000 -0.700000 1.200000
v -0.100000 -0.100001 3.200000
v -0.100000 -0.100000 1.200000
v -0.100000 1.399999 4.900000
v -0.100000 1.399999 4.200000
v -0.100000 1.899999 4.900001
v -0.100000 1.899999 4.200000
v -0.100000 1.399999 4.000000
v -0.100000 1.399999 3.200000
v -0.100000 1.899999 4.000000
v -0.100000 1.899999 3.200000
v -0.100000 1.400000 2.500000
v -0.100000 1.400000 2.100000
v -0.100000 1.900000 2.500000
v -0.100000 1.900000 2.100000
v -0.100000 1.400000 1.900000
v -0.100000 1.400000 1.300000
v -0.100000 1.900000 1.900000
v -0.100000 1.900000 1.300000
v -0.100000 1.400000 1.000000
v -0.100000 1.400000 0.300000
v -0.100000 1.900000 1.000000
v -0.100000 1.900000 0.300000
v 0.500000 -2.200000 -1.600000
v 0.500000 -2.200000 -2.000000
v 0.500000 -1.800000 -1.600000
v 0.500000 -1.800000 -2.000000
v 0.500000 -2.200000 -2.200001
v 0.500000 -2.200000 -2.800000
v 0.500000 -1.800000 -2.200000
v 0.500000 -1.799999 -2.800000
v 0.500000 -2.200000 -3.300000
v 0.500000 -2.199999 -3.700001
v 0.500000 -1.799999 -3.300000
v 0.500000 -1.799999 -3.700000
v 0.500000 -2.199999 -4.000000
v 0.500000 -2.199999 -4.500000
v 0.500000 -1.799999 -4.000000
v 0.500000 -1.799999 -4.500000
v 0.500000 -1.600000 -1.600000
v 0.500000 -1.600000 -2.000000
v 0.500000 -1.300000 -1.600000
v 0.500000 -1.300000 -2.000000
v 0.500000 -1.600000 -2.200000
v 0.500000 -1.600000 -2.800000
v 0.500000 -1.300000 -2.200000
v 0.500000 -1.299999 -2.800000
v 0.500000 -1.599999 -3.300000
v 0.500000 -1.599999 -3.700000
v 0.500000 -1.299999 -3.300000
v 0.500000 -1.299999 -3.700000
v 0.500000 -1.599999 -4.000000
v 0.500000 -1.599999 -4.500000
v 0.500000 -1.299999 -4.000000
v 0.500000 -1.299999 -4.500000
v 0.900000 -6.600000 -1.300001
v 0.900000 -6.599999 -4.800001
v 0.900000 -5.200000 -1.300001
v 0.900000 -5.199999 -4.800001
v 0.900000 -4.500000 -1.200001
v 0.900000 -4.500000 -2.300001
v 0.900000 -4.100000 -1.200001
v 0.900000 -4.099999 -2.300001
v 0.900000 -4.500000 -2.700001
v 0.900000 -4.500000 -3.100001
v 0.900000 -4.099999 -2.700001
v 0.900000 -4.099999 -3.100001
v 0.900000 -4.500000 -3.300001
v 0.900000 -4.500000 -3.700001
v 0.900000 -4.099999 -3.300001
v 0.900000 -4.099999 -3.700001
v 0.900000 -4.500000 -3.900001
v 0.900000 -4.500000 -4.300001
v 0.900000 -4.099999 -3.900001
v 0.900000 -4.099999 -4.300001
v 0.900000 -4.499999 -4.500001
v 0.900000 -4.499999 -4.800001
v 0.900000 -4.099999 -4.500000
v 0.900000 -4.099999 -4.800001
v 0.900000 -3.500000 -1.200001
v 0.900000 -3.500000 -1.600001
v 0.900000 -3.200000 -1.200001
v 0.900000 -3.200000 -1.600001
v 0.900000 -3.500000 -1.800001
v 0.900000 -3.500000 -2.200001
v 0.900000 -3.200000 -1.800000
v 0.900000 -3.200000 -2.200001
v 0.900000 -3.500000 -2.400001
v 0.900000 -3.500000 -3.400001
v 0.900000 -3.200000 -2.400001
v 0.900000 -3.200000 -3.400001
v 0.900000 -3.500000 -3.600000
v 0.900000 -3.499999 -4.900001
v 0.900000 -3.200000 -3.600000
v 0.900000 -3.199999 -4.900001
vt 0.759766 0.500000
vt 0.759766 0.500000
vt 0.759766 0.500000
vt 0.759766 0.500000
vt 0.759766 0.500000
vt 0.759766 0.500000
vt 0.759766 0.500000
vt 0.759766 0.500000
vt 0.759766 0.500000
vt 0.759766 0.500000
vt 0.759766 0.500000
vt 0.759766 0.500000
vt 0.759766 0.500000
vt 0.759766 0.500000
vt 0.759766 0.500000
vt 0.759766 0.500000
vt 0.759766 0.500000
vt 0.759766 0.500000
vt 0.759766 0.500000
vt 0.759766 0.500000
vt 0.759766 0.500000
vt 0.759766 0.500000
vt 0.759766 0.500000
vt 0.759766 0.500000
vt 0.759766 0.500000
vt 0.759766 0.500000
vt 0.759766 0.500000
vt 0.759766 0.500000
vt 0.759766 0.500000
vt 0.759766 0.500000
vt 0.759766 0.500000
vt 0.759766 0.500000
vt 0.759766 0.500000
vt 0.759766 0.500000
vt 0.759766 0.500000
vt 0.759766 0.500000
vt 0.759766 0.500000
vt 0.759766 0.500000
vt 0.759766 0.500000
vt 0.759766 0.500000
vt 0.759766 0.500000
vt 0.759766 0.500000
vt 0.759766 0.500000
vt 0.759766 0.500000
vt 0.759766 0.500000
vt 0.759766 0.500000
vt 0.759766 0.500000
vt 0.759766 0.500000
vt 0.759766 0.500000
vt 0.759766 0.500000
vt 0.759766 0.500000
vt 0.759766 0.500000
vt 0.759766 0.500000
vt 0.759766 0.500000
vt 0.759766 0.500000
vt 0.759766 0.500000
vt 0.759766 0.500000
vt 0.759766 0.500000
vt 0.759766 0.500000
vt 0.759766 0.500000
vt 0.759766 0.500000
vt 0.759766 0.500000
vt 0.759766 0.500000
vt 0.759766 0.500000
vt 0.759766 0.500000
vt 0.759766 0.500000
vt 0.759766 0.500000
vt 0.759766 0.500000
vt 0.759766 0.500000
vt 0.759766 0.500000
vt 0.759766 0.500000
vt 0.759766 0.500000
vt 0.759766 0.500000
vt 0.759766 0.500000
vt 0.759766 0.500000
vt 0.759766 0.500000
vt 0.759766 0.500000
vt 0.759766 0.500000
vt 0.759766 0.500000
vt 0.759766 0.500000
vt 0.759766 0.500000
vt 0.759766 0.500000
vt 0.759766 0.500000
vt 0.759766 0.500000
vt 0.759766 0.500000
vt 0.759766 0.500000
vt 0.759766 0.500000
vt 0.759766 0.500000
vt 0.759766 0.500000
vt 0.759766 0.500000
vt 0.759766 0.500000
vt 0.759766 0.500000
vt 0.759766 0.500000
vt 0.759766 0.500000
vt 0.759766 0.500000
vt 0.759766 0.500000
vt 0.759766 0.500000
vt 0.759766 0.500000
vt 0.759766 0.500000
vt 0.759766 0.500000
vt 0.759766 0.500000
vt 0.759766 0.500000
vt 0.759766 0.500000
vt 0.759766 0.500000
vt 0.759766 0.500000
vt 0.759766 0.500000
vt 0.759766 0.500000
vt 0.759766 0.500000
vt 0.759766 0.500000
vt 0.759766 0.500000
vt 0.759766 0.500000
vt 0.759766 0.500000
vt 0.759766 0.500000
vt 0.759766 0.500000
vt 0.759766 0.500000
vt 0.759766 0.500000
vt 0.759766 0.500000
vt 0.759766 0.500000
vt 0.759766 0.500000
vt 0.759766 0.500000
vt 0.759766 0.500000
vt 0.759766 0.500000
vt 0.759766 0.500000
vt 0.759766 0.500000
vt 0.759766 0.500000
vt 0.759766 0.500000
vt 0.759766 0.500000
vt 0.759766 0.500000
vt 0.759766 0.500000
vt 0.759766 0.500000
vt 0.759766 0.500000
vt 0.759766 0.500000
vt 0.759766 0.500000
vt 0.759766 0.500000
vt 0.759766 0.500000
vt 0.759766 0.500000
vt 0.759766 0.500000
vt 0.759766 0.500000
vt 0.759766 0.500000
vt 0.759766 0.500000
vt 0.759766 0.500000
vt 0.759766 0.500000
vt 0.759766 0.500000
vt 0.759766 0.500000
vt 0.759766 0.500000
vt 0.759766 0.500000
vt 0.759766 0.500000
vt 0.759766 0.500000
vt 0.759766 0.500000
vt 0.759766 0.500000
vt 0.759766 0.500000
vt 0.759766 0.500000
vt 0.759766 0.500000
vt 0.759766 0.500000
vt 0.759766 0.500000
vt 0.759766 0.500000
vt 0.759766 0.500000
vt 0.759766 0.500000
vt 0.759766 0.500000
vt 0.759766 0.500000
vt 0.759766 0.500000
vt 0.759766 0.500000
vt 0.759766 0.500000
vt 0.759766 0.500000
vt 0.759766 0.500000
vt 0.759766 0.500000
vt 0.759766 0.500000
vt 0.759766 0.500000
vt 0.759766 0.500000
vt 0.759766 0.500000
vt 0.759766 0.500000
vt 0.759766 0.500000
vt 0.759766 0.500000
vt 0.759766 0.500000
vt 0.759766 0.500000
vt 0.759766 0.500000
vt 0.759766 0.500000
vt 0.759766 0.500000
vt 0.759766 0.500000
vt 0.759766 0.500000
vt 0.759766 0.500000
vt 0.759766 0.500000
vt 0.759766 0.500000
vt 0.759766 0.500000
vt 0.759766 0.500000
vt 0.759766 0.500000
vt 0.759766 0.500000
vt 0.759766 0.500000
vn 1.0000 0.0000 0.0000
s 1
f 1/1/1 2/2/1 3/3/1
f 3/3/1 2/2/1 4/4/1
f 5/5/1 6/6/1 7/7/1
f 7/7/1 6/6/1 8/8/1
f 9/9/1 10/10/1 11/11/1
f 11/11/1 10/10/1 12/12/1
f 13/13/1 14/14/1 15/15/1
f 15/15/1 14/14/1 16/16/1
f 17/17/1 18/18/1 19/19/1
f 19/19/1 18/18/1 20/20/1
f 21/21/1 22/22/1 23/23/1
f 23/23/1 22/22/1 24/24/1
f 25/25/1 26/26/1 27/27/1
f 27/27/1 26/26/1 28/28/1
f 29/29/1 30/30/1 31/31/1
f 31/31/1 30/30/1 32/32/1
f 33/33/1 34/34/1 35/35/1
f 35/35/1 34/34/1 36/36/1
f 37/37/1 38/38/1 39/39/1
f 39/39/1 38/38/1 40/40/1
f 41/41/1 42/42/1 43/43/1
f 43/43/1 42/42/1 44/44/1
f 45/45/1 46/46/1 47/47/1
f 47/47/1 46/46/1 48/48/1
f 49/49/1 50/50/1 51/51/1
f 51/51/1 50/50/1 52/52/1
f 53/53/1 54/54/1 55/55/1
f 55/55/1 54/54/1 56/56/1
f 57/57/1 58/58/1 59/59/1
f 59/59/1 58/58/1 60/60/1
f 61/61/1 62/62/1 63/63/1
f 63/63/1 62/62/1 64/64/1
f 65/65/1 66/66/1 67/67/1
f 67/67/1 66/66/1 68/68/1
f 69/69/1 70/70/1 71/71/1
f 71/71/1 70/70/1 72/72/1
f 73/73/1 74/74/1 75/75/1
f 75/75/1 74/74/1 76/76/1
f 77/77/1 78/78/1 79/79/1
f 79/79/1 78/78/1 80/80/1
f 81/81/1 82/82/1 83/83/1
f 83/83/1 82/82/1 84/84/1
f 85/85/1 86/86/1 87/87/1
f 87/87/1 86/86/1 88/88/1
f 89/89/1 90/90/1 91/91/1
f 91/91/1 90/90/1 92/92/1
f 93/93/1 94/94/1 95/95/1
f 95/95/1 94/94/1 96/96/1
f 97/97/1 98/98/1 99/99/1
f 99/99/1 98/98/1 100/100/1
f 101/101/1 102/102/1 103/103/1
f 103/103/1 102/102/1 104/104/1
f 105/105/1 106/106/1 107/107/1
f 107/107/1 106/106/1 108/108/1
f 109/109/1 110/110/1 111/111/1
f 111/111/1 110/110/1 112/112/1
f 113/113/1 114/114/1 115/115/1
f 115/115/1 114/114/1 116/116/1
f 117/117/1 118/118/1 119/119/1
f 119/119/1 118/118/1 120/120/1
f 121/121/1 122/122/1 123/123/1
f 123/123/1 122/122/1 124/124/1
f 125/125/1 126/126/1 127/127/1
f 127/127/1 126/126/1 128/128/1
f 129/129/1 130/130/1 131/131/1
f 131/131/1 130/130/1 132/132/1
f 133/133/1 134/134/1 135/135/1
f 135/135/1 134/134/1 136/136/1
f 137/137/1 138/138/1 139/139/1
f 139/139/1 138/138/1 140/140/1
f 141/141/1 142/142/1 143/143/1
f 143/143/1 142/142/1 144/144/1
f 145/145/1 146/146/1 147/147/1
f 147/147/1 146/146/1 148/148/1
f 149/149/1 150/150/1 151/151/1
f 151/151/1 150/150/1 152/152/1
f 153/153/1 154/154/1 155/155/1
f 155/155/1 154/154/1 156/156/1
f 157/157/1 158/158/1 159/159/1
f 159/159/1 158/158/1 160/160/1
f 161/161/1 162/162/1 163/163/1
f 163/163/1 162/162/1 164/164/1
f 165/165/1 166/166/1 167/167/1
f 167/167/1 166/166/1 168/168/1
f 169/169/1 170/170/1 171/171/1
f 171/171/1 170/170/1 172/172/1
f 173/173/1 174/174/1 175/175/1
f 175/175/1 174/174/1 176/176/1
f 177/177/1 178/178/1 179/179/1
f 179/179/1 178/178/1 180/180/1
f 181/181/1 182/182/1 183/183/1
f 183/183/1 182/182/1 184/184/1
f 185/185/1 186/186/1 187/187/1
f 187/187/1 186/186/1 188/188/1
