# This file uses centimeters as units for non-parametric coordinates.

mtllib Street1-4.mtl
g default
v -0.700000 4.100000 -4.950000
v -0.700000 4.100000 -5.050000
v -0.700000 4.800000 -4.950000
v -0.700000 4.800000 -5.050000
v 0.300000 -4.800000 5.050000
v 0.300000 -4.800000 4.950000
v 0.300000 -4.700000 5.050000
v 0.300000 -4.700000 4.950000
v 0.600000 -4.500000 5.050000
v 0.600000 -4.500000 4.950000
v 0.600000 -4.400001 5.050000
v 0.600000 -4.400001 4.950000
v -0.600000 4.100000 -4.950000
v -0.600000 4.100000 -5.050000
v -0.600000 4.800000 -4.950000
v -0.600000 4.800000 -5.050000
v 0.400000 -4.800000 5.050000
v 0.400000 -4.800000 4.950000
v 0.400000 -4.700000 5.050000
v 0.400000 -4.700000 4.950000
v 0.700000 -4.500000 5.050000
v 0.700000 -4.500000 4.950000
v 0.700000 -4.400001 5.050000
v 0.700000 -4.400001 4.950000
vt 0.162109 0.500000
vt 0.162109 0.500000
vt 0.162109 0.500000
vt 0.162109 0.500000
vt 0.162109 0.500000
vt 0.162109 0.500000
vt 0.162109 0.500000
vt 0.162109 0.500000
vt 0.162109 0.500000
vt 0.162109 0.500000
vt 0.162109 0.500000
vt 0.162109 0.500000
vt 0.162109 0.500000
vt 0.162109 0.500000
vt 0.162109 0.500000
vt 0.162109 0.500000
vt 0.162109 0.500000
vt 0.162109 0.500000
vt 0.162109 0.500000
vt 0.162109 0.500000
vt 0.162109 0.500000
vt 0.162109 0.500000
vt 0.162109 0.500000
vt 0.162109 0.500000
vt 0.162109 0.500000
vt 0.162109 0.500000
vt 0.162109 0.500000
vt 0.162109 0.500000
vt 0.162109 0.500000
vt 0.162109 0.500000
vt 0.162109 0.500000
vt 0.162109 0.500000
vt 0.162109 0.500000
vt 0.162109 0.500000
vt 0.162109 0.500000
vt 0.162109 0.500000
vt 0.162109 0.500000
vt 0.162109 0.500000
vt 0.162109 0.500000
vt 0.162109 0.500000
vt 0.162109 0.500000
vt 0.162109 0.500000
vt 0.162109 0.500000
vt 0.162109 0.500000
vt 0.162109 0.500000
vt 0.162109 0.500000
vt 0.162109 0.500000
vt 0.162109 0.500000
vt 0.162109 0.500000
vt 0.162109 0.500000
vt 0.162109 0.500000
vt 0.162109 0.500000
vt 0.162109 0.500000
vt 0.162109 0.500000
vt 0.162109 0.500000
vt 0.162109 0.500000
vt 0.162109 0.500000
vt 0.162109 0.500000
vt 0.162109 0.500000
vt 0.162109 0.500000
vt 0.162109 0.500000
vt 0.162109 0.500000
vt 0.162109 0.500000
vt 0.162109 0.500000
vt 0.162109 0.500000
vt 0.162109 0.500000
vt 0.162109 0.500000
vt 0.162109 0.500000
vt 0.162109 0.500000
vt 0.162109 0.500000
vt 0.162109 0.500000
vt 0.162109 0.500000
vt 0.162109 0.500000
vt 0.162109 0.500000
vt 0.162109 0.500000
vt 0.162109 0.500000
vt 0.162109 0.500000
vt 0.162109 0.500000
vt 0.162109 0.500000
vt 0.162109 0.500000
vt 0.162109 0.500000
vt 0.162109 0.500000
vt 0.162109 0.500000
vt 0.162109 0.500000
vt 0.162109 0.500000
vt 0.162109 0.500000
vt 0.162109 0.500000
vt 0.162109 0.500000
vt 0.162109 0.500000
vt 0.162109 0.500000
vt 0.162109 0.500000
vt 0.162109 0.500000
vt 0.162109 0.500000
vt 0.162109 0.500000
vt 0.162109 0.500000
vt 0.162109 0.500000
vt 0.162109 0.500000
vt 0.162109 0.500000
vt 0.162109 0.500000
vt 0.162109 0.500000
vt 0.162109 0.500000
vt 0.162109 0.500000
vt 0.162109 0.500000
vt 0.162109 0.500000
vt 0.162109 0.500000
vt 0.162109 0.500000
vt 0.162109 0.500000
vn -1.000000 0.000000 0.000000
vn -1.000000 0.000000 0.000000
vn -1.000000 0.000000 0.000000
vn -1.000000 0.000000 0.000000
vn -1.000000 0.000000 0.000000
vn -1.000000 0.000000 0.000000
vn -1.000000 0.000000 0.000000
vn -1.000000 0.000000 0.000000
vn -1.000000 0.000000 0.000000
vn -1.000000 0.000000 0.000000
vn -1.000000 0.000000 0.000000
vn -1.000000 0.000000 0.000000
vn 1.000000 0.000000 0.000000
vn 1.000000 0.000000 0.000000
vn 1.000000 0.000000 0.000000
vn 1.000000 0.000000 0.000000
vn 1.000000 0.000000 0.000000
vn 1.000000 0.000000 0.000000
vn 1.000000 0.000000 0.000000
vn 1.000000 0.000000 0.000000
vn 1.000000 0.000000 0.000000
vn 1.000000 0.000000 0.000000
vn 1.000000 0.000000 0.000000
vn 1.000000 0.000000 0.000000
vn 0.000000 0.000000 1.000000
vn 0.000000 0.000000 1.000000
vn 0.000000 0.000000 1.000000
vn 0.000000 0.000000 1.000000
vn 0.000000 0.000000 1.000000
vn 0.000000 0.000000 1.000000
vn 0.000000 0.000000 1.000000
vn 0.000000 0.000000 1.000000
vn 0.000000 0.000000 1.000000
vn 0.000000 0.000000 1.000000
vn 0.000000 0.000000 1.000000
vn 0.000000 0.000000 1.000000
vn 0.000000 0.000000 -1.000000
vn 0.000000 0.000000 -1.000000
vn 0.000000 0.000000 -1.000000
vn 0.000000 0.000000 -1.000000
vn 0.000000 0.000000 -1.000000
vn 0.000000 0.000000 -1.000000
vn 0.000000 0.000000 -1.000000
vn 0.000000 0.000000 -1.000000
vn 0.000000 0.000000 -1.000000
vn 0.000000 0.000000 -1.000000
vn 0.000000 0.000000 -1.000000
vn 0.000000 0.000000 -1.000000
vn 0.000000 -1.000000 0.000000
vn 0.000000 -1.000000 0.000000
vn 0.000000 -1.000000 0.000000
vn 0.000000 -1.000000 0.000000
vn 0.000000 -1.000000 0.000000
vn 0.000000 -1.000000 0.000000
vn 0.000000 -1.000000 0.000000
vn 0.000000 -1.000000 0.000000
vn 0.000000 -1.000000 0.000000
vn 0.000000 -1.000000 0.000000
vn 0.000000 -1.000000 0.000000
vn 0.000000 -1.000000 0.000000
vn 0.000000 1.000000 0.000000
vn 0.000000 1.000000 0.000000
vn 0.000000 1.000000 0.000000
vn 0.000000 1.000000 0.000000
vn 0.000000 1.000000 0.000000
vn 0.000000 1.000000 0.000000
vn 0.000000 1.000000 0.000000
vn 0.000000 1.000000 0.000000
vn 0.000000 1.000000 0.000000
vn 0.000000 1.000000 0.000000
vn 0.000000 1.000000 0.000000
vn 0.000000 1.000000 0.000000
vn 0.000000 -1.000000 0.000000
vn 0.000000 -1.000000 0.000000
vn 0.000000 -1.000000 0.000000
vn 0.000000 -1.000000 0.000000
vn 0.000000 -1.000000 0.000000
vn 0.000000 -1.000000 0.000000
vn 0.000000 -1.000000 0.000000
vn 0.000000 -1.000000 0.000000
vn 0.000000 -1.000000 0.000000
vn 0.000000 -1.000000 0.000000
vn 0.000000 -1.000000 0.000000
vn 0.000000 -1.000000 0.000000
vn 0.000000 -1.000000 0.000000
vn 0.000000 -1.000000 0.000000
vn 0.000000 -1.000000 0.000000
vn 0.000000 -1.000000 0.000000
vn 0.000000 -1.000000 0.000000
vn 0.000000 -1.000000 0.000000
vn 0.000000 1.000000 0.000000
vn 0.000000 1.000000 0.000000
vn 0.000000 1.000000 0.000000
vn 0.000000 1.000000 0.000000
vn 0.000000 1.000000 0.000000
vn 0.000000 1.000000 0.000000
vn 0.000000 1.000000 0.000000
vn 0.000000 1.000000 0.000000
vn 0.000000 1.000000 0.000000
vn 0.000000 1.000000 0.000000
vn 0.000000 1.000000 0.000000
vn 0.000000 1.000000 0.000000
vn 0.000000 1.000000 0.000000
vn 0.000000 1.000000 0.000000
vn 0.000000 1.000000 0.000000
vn 0.000000 1.000000 0.000000
vn 0.000000 1.000000 0.000000
vn 0.000000 1.000000 0.000000
s 1
g Street1_5:Mesh
usemtl Street1_5:palette
f 3/1/1 2/2/2 1/3/3
f 4/4/4 2/5/2 3/1/1
s 2
f 7/6/5 6/7/6 5/8/7
f 8/9/8 6/10/6 7/11/5
s 3
f 11/12/9 10/13/10 9/14/11
f 12/15/12 10/16/10 11/17/9
s 4
f 13/18/13 14/19/14 15/20/15
f 15/21/15 14/22/14 16/23/16
s 5
f 17/24/17 18/25/18 19/26/19
f 19/27/19 18/28/18 20/29/20
s 6
f 21/30/21 22/31/22 23/32/23
f 23/33/23 22/34/22 24/35/24
s 7
f 17/36/25 7/37/26 5/38/27
f 19/39/28 7/40/26 17/41/25
s 8
f 21/42/29 11/43/30 9/44/31
f 23/45/32 11/46/30 21/47/29
s 9
f 13/48/33 3/49/34 1/50/35
f 15/51/36 3/52/34 13/53/33
s 10
f 6/54/37 8/55/38 18/56/39
f 18/57/39 8/58/38 20/59/40
s 11
f 10/60/41 12/61/42 22/62/43
f 22/63/43 12/64/42 24/65/44
s 12
f 2/66/45 4/67/46 14/68/47
f 14/69/47 4/70/46 16/71/48
s 13
f 6/72/49 17/73/50 5/74/51
f 18/75/52 17/76/50 6/77/49
s 14
f 10/78/53 21/79/54 9/80/55
f 22/81/56 21/82/54 10/83/53
s 15
f 2/84/57 13/85/58 1/86/59
f 14/87/60 13/88/58 2/89/57
s 16
f 7/90/61 19/91/62 8/92/63
f 8/93/63 19/94/62 20/95/64
s 17
f 11/96/65 23/97/66 12/98/67
f 12/99/67 23/100/66 24/101/68
s 18
f 3/102/69 15/103/70 4/104/71
f 4/105/71 15/106/70 16/107/72
